<svg width="64" height="64" viewBox="0 0 64 64" fill="none" xmlns="http://www.w3.org/2000/svg">
<g clip-path="url(#clip0_3312_109)">
<path d="M29.4269 4.46265C30.3095 5.08156 30.8234 5.78123 31.0254 6.84736C31.137 7.4954 31.1542 8.12484 31.1496 8.78112C31.1496 8.90292 31.1496 9.02471 31.1497 9.15019C31.1495 9.54846 31.1478 9.94671 31.1461 10.345C31.1457 10.6228 31.1454 10.9006 31.1452 11.1785C31.1444 11.8323 31.1427 12.4861 31.1405 13.14C31.138 13.8851 31.1368 14.6302 31.1357 15.3754C31.1335 16.9065 31.1296 18.4376 31.1247 19.9687C31.7022 19.9687 32.2797 19.9687 32.8747 19.9687C32.8743 19.8135 32.8738 19.6584 32.8733 19.4985C32.8688 18.0342 32.8655 16.5698 32.8634 15.1054C32.8623 14.3526 32.8608 13.5998 32.8582 12.847C32.8558 12.1201 32.8546 11.3932 32.854 10.6663C32.8536 10.3894 32.8528 10.1125 32.8516 9.83563C32.85 9.44687 32.8498 9.05814 32.8499 8.66937C32.8491 8.55569 32.8483 8.44201 32.8475 8.32488C32.8511 7.04723 33.038 5.92949 33.9206 4.96381C34.7789 4.16687 35.6428 3.92194 36.7898 3.94288C37.4485 3.97539 37.9874 4.10343 38.5622 4.43745C38.7018 4.51718 38.7018 4.51718 38.8442 4.59852C39.7538 5.17446 40.3146 5.98049 40.7497 6.95307C40.8066 6.92276 40.8634 6.89245 40.9219 6.86121C41.0363 6.80179 41.0363 6.80179 41.1531 6.74116C41.2279 6.70182 41.3028 6.66249 41.3799 6.62196C42.3842 6.18556 43.9708 6.24691 44.9838 6.6211C46.4023 7.2626 47.4684 8.05635 48.1872 9.4687C48.3223 9.82875 48.43 10.1876 48.5154 10.5624C48.5829 10.5653 48.6504 10.5681 48.72 10.571C50.1604 10.6675 51.3378 11.431 52.3277 12.4556C53.4206 13.8272 53.5834 15.2212 53.5466 16.9062C53.662 16.9354 53.7773 16.9646 53.8961 16.9946C55.18 17.3967 56.2292 18.4967 56.8621 19.6542C57.7057 21.2954 58.0362 23.1335 57.4978 24.9248C57.3587 25.319 57.2033 25.7061 57.0466 26.0937C57.1256 26.1543 57.2045 26.215 57.2859 26.2774C57.3874 26.3567 57.4889 26.4359 57.5935 26.5175C57.695 26.5962 57.7965 26.6749 57.9011 26.7559C57.9801 26.8261 58.059 26.8964 58.1404 26.9687C58.1404 27.0409 58.1404 27.1131 58.1404 27.1874C58.2126 27.1874 58.2847 27.1874 58.3591 27.1874C59.826 28.8282 60.0892 30.8304 60.0154 32.9273C59.9315 34.4009 59.1638 35.9722 58.1404 37.0312C57.8237 37.3038 57.4974 37.5561 57.156 37.7968C57.1771 37.8669 57.1983 37.937 57.2201 38.0092C57.2486 38.1038 57.277 38.1984 57.3064 38.2958C57.3483 38.4348 57.3483 38.4348 57.391 38.5765C57.4217 38.6802 57.4525 38.7838 57.4841 38.8906C57.523 39.0076 57.562 39.1246 57.602 39.2452C58.017 40.9367 57.6894 42.7904 56.8151 44.2799C55.9939 45.4689 54.9033 46.5817 53.4372 46.875C53.4733 46.9471 53.5094 47.0193 53.5466 47.0937C53.6696 48.8967 53.3193 50.2982 52.138 51.7152C51.2547 52.6556 50.2019 53.1497 48.9529 53.4375C48.8085 53.4375 48.6641 53.4375 48.5154 53.4375C48.4906 53.5615 48.4657 53.6856 48.4402 53.8134C48.0824 55.2222 47.0927 56.1933 45.8904 56.9375C45.0063 57.4562 44.1389 57.6364 43.1218 57.6347C43.0311 57.6349 42.9404 57.635 42.8469 57.6351C42.1131 57.6225 41.5274 57.4586 40.8591 57.1562C40.7869 57.1562 40.7147 57.1562 40.6404 57.1562C40.6085 57.2263 40.5766 57.2963 40.5438 57.3685C39.9801 58.558 39.2498 59.37 38.0085 59.8769C37.0087 60.1698 35.7965 60.1448 34.8555 59.6932C33.9498 59.18 33.4186 58.6069 33.0473 57.6249C32.8501 56.8451 32.8596 56.0547 32.8623 55.256C32.8623 55.1343 32.8623 55.0125 32.8623 54.8871C32.8624 54.4871 32.8632 54.087 32.8641 53.687C32.8643 53.4087 32.8644 53.1304 32.8645 52.8521C32.8649 52.1959 32.8658 51.5397 32.8669 50.8836C32.8681 50.1361 32.8687 49.3885 32.8692 48.641C32.8704 47.1044 32.8723 45.5678 32.8747 44.0312C32.2972 44.0312 31.7197 44.0312 31.1247 44.0312C31.125 44.1744 31.1252 44.3176 31.1255 44.4652C31.1277 45.82 31.1293 47.1748 31.1304 48.5296C31.131 49.2259 31.1317 49.9223 31.133 50.6187C31.1342 51.2917 31.1348 51.9647 31.1351 52.6377C31.1353 52.8935 31.1357 53.1493 31.1363 53.4051C31.1464 57.9135 31.1464 57.9135 30.031 59.125C29.1256 59.9394 28.1631 60.0772 26.983 60.038C26.4046 60.0015 25.9407 59.8482 25.4372 59.5625C25.3535 59.5186 25.2697 59.4748 25.1835 59.4296C24.252 58.8849 23.7074 58.0014 23.2497 57.0468C23.1527 57.0923 23.1527 57.0923 23.0536 57.1387C22.9672 57.1783 22.8808 57.2179 22.7917 57.2587C22.7067 57.2981 22.6217 57.3374 22.5341 57.3779C21.3832 57.8335 19.8919 57.7 18.75 57.2938C18.2692 57.0823 17.8632 56.8264 17.4529 56.5C17.3684 56.4345 17.284 56.3691 17.1969 56.3017C16.3278 55.5844 15.8264 54.7212 15.4841 53.6562C15.4841 53.584 15.4841 53.5118 15.4841 53.4375C15.4166 53.4346 15.349 53.4318 15.2795 53.4289C13.8716 53.3346 12.7115 52.6093 11.7487 51.5986C10.6169 50.2586 10.3367 48.7956 10.4529 47.0937C10.489 47.0215 10.5251 46.9493 10.5622 46.875C10.5026 46.8589 10.443 46.8428 10.3815 46.8262C8.95665 46.4024 7.8254 45.4044 7.10026 44.1137C6.34285 42.5659 5.9257 40.7213 6.447 39.0205C6.50447 38.8671 6.56356 38.7144 6.62474 38.5625C6.66978 38.4126 6.71324 38.2622 6.75462 38.1113C6.78395 38.0075 6.81327 37.9037 6.84349 37.7968C6.77468 37.7476 6.70588 37.6984 6.63499 37.6477C5.52946 36.8169 4.80975 35.8097 4.32786 34.5156C4.2929 34.4235 4.25793 34.3314 4.2219 34.2366C3.9851 33.479 3.96609 32.7257 3.95872 31.9384C3.9572 31.8337 3.95567 31.729 3.9541 31.6211C3.96632 29.7663 4.79524 28.0698 6.07786 26.7499C6.35775 26.5105 6.64351 26.2935 6.95286 26.0937C6.91465 25.9961 6.87645 25.8986 6.83708 25.798C6.78731 25.67 6.73754 25.542 6.68626 25.4101C6.61203 25.2198 6.61203 25.2198 6.5363 25.0256C5.99786 23.5639 6.18605 21.7556 6.79008 20.3494C7.53615 18.7353 8.56625 17.5904 10.2341 16.9062C10.3063 16.9062 10.3785 16.9062 10.4529 16.9062C10.4491 16.7847 10.4452 16.6631 10.4413 16.5379C10.421 15.6279 10.4064 14.8009 10.781 13.9531C10.8432 13.8091 10.8432 13.8091 10.9066 13.6621C11.6263 12.1832 12.8491 11.2408 14.3699 10.6855C14.7488 10.5689 15.0856 10.5318 15.4841 10.5624C15.5146 10.356 15.5146 10.356 15.5456 10.1455C15.8223 8.93669 16.6891 7.99216 17.6716 7.2812C19.0868 6.45685 20.5664 6.17603 22.1885 6.47199C22.5951 6.5911 22.8953 6.71677 23.2497 6.95307C23.2895 6.8751 23.3293 6.79714 23.3702 6.7168C24.0376 5.44539 24.7767 4.54698 26.1717 4.0807C27.313 3.82421 28.4014 3.8628 29.4269 4.46265ZM25.4919 5.92085C24.9494 6.44976 24.4862 7.1647 24.4397 7.9374C24.44 8.01415 24.4402 8.0909 24.4404 8.16998C24.4405 8.25753 24.4405 8.34509 24.4405 8.4353C24.441 8.52874 24.4416 8.62218 24.4422 8.71845C24.4423 8.81494 24.4425 8.91143 24.4427 9.01084C24.4433 9.31841 24.4446 9.62597 24.446 9.93354C24.4466 10.1423 24.4471 10.3511 24.4475 10.5599C24.4487 11.0712 24.4506 11.5824 24.4529 12.0937C24.5132 12.1152 24.5736 12.1368 24.6358 12.159C24.7543 12.2021 24.7543 12.2021 24.8753 12.2462C24.9929 12.2887 24.9929 12.2887 25.1129 12.332C25.6495 12.5562 25.9753 13.0478 26.2178 13.5587C26.479 14.3091 26.4959 15.0077 26.2088 15.7526C25.8413 16.4877 25.3844 16.8687 24.6238 17.1591C23.7383 17.33 23.0512 17.2556 22.2654 16.7968C21.7103 16.3072 21.3334 15.7959 21.2404 15.049C21.223 14.208 21.2964 13.5362 21.8279 12.8593C22.231 12.5134 22.6364 12.2617 23.1404 12.0937C23.1404 10.8665 23.1404 9.63932 23.1404 8.37495C21.7247 7.66712 21.0068 7.44175 19.531 7.82807C18.3457 8.25781 17.4969 9.02619 16.9278 10.1442C16.7637 10.5306 16.6554 10.9177 16.5706 11.3285C16.4685 11.5468 16.4685 11.5468 16.2241 11.681C15.9143 11.7676 15.6187 11.8157 15.2995 11.8544C14.2446 12.0227 13.3572 12.4984 12.6404 13.2968C12.4227 13.6114 12.2536 13.9343 12.0935 14.2812C12.0585 14.3483 12.0236 14.4154 11.9875 14.4846C11.7612 14.9748 11.7513 15.4135 11.7572 15.9513C11.7584 16.0892 11.7596 16.227 11.7608 16.3691C11.7631 16.5267 11.7631 16.5267 11.7654 16.6874C11.865 16.6884 11.865 16.6884 11.9666 16.6894C12.6568 16.6964 13.347 16.7056 14.0371 16.7162C14.2948 16.7198 14.5525 16.7229 14.8102 16.7253C15.1803 16.729 15.5503 16.7347 15.9203 16.7409C16.0359 16.7416 16.1514 16.7423 16.2704 16.743C16.3777 16.7451 16.485 16.7473 16.5955 16.7495C16.7372 16.7514 16.7372 16.7514 16.8818 16.7532C17.1785 16.8065 17.2765 16.8833 17.4529 17.1249C17.489 17.3992 17.5063 17.6479 17.5088 17.9226C17.5108 17.9998 17.5128 18.0771 17.5148 18.1566C17.5207 18.4029 17.5244 18.6491 17.5281 18.8955C17.5317 19.0626 17.5355 19.2297 17.5394 19.3968C17.5487 19.8062 17.556 20.2155 17.5622 20.6249C17.7011 20.6959 17.8401 20.7664 17.9792 20.8369C18.0566 20.8762 18.134 20.9155 18.2138 20.9561C18.4502 21.0742 18.4502 21.0742 18.7654 21.1718C18.8811 21.3722 18.8811 21.3722 18.9841 21.6093C19.0215 21.6752 19.0588 21.741 19.0973 21.8088C19.5059 22.5499 19.6254 23.2018 19.4148 24.0292C19.1641 24.7533 18.779 25.2393 18.0954 25.5947C17.3231 25.895 16.4888 25.895 15.7165 25.5947C15.1479 25.3036 14.7664 24.8804 14.4848 24.3112C14.2571 23.5982 14.2496 22.6783 14.5681 21.9921C15.0183 21.2544 15.4423 20.971 16.2497 20.6249C16.2497 19.7587 16.2497 18.8924 16.2497 17.9999C15.5259 17.9848 14.8027 17.9718 14.0788 17.9639C13.8331 17.9606 13.5874 17.9562 13.3418 17.9504C11.4048 17.8692 11.4048 17.8692 9.68724 18.6562C9.57487 18.7385 9.4625 18.8209 9.34672 18.9057C8.14206 20.1211 7.56384 21.5605 7.56887 23.2664C7.59134 24.31 7.93658 25.114 8.5106 25.9766C8.59349 26.2031 8.59349 26.2031 8.53026 26.4821C8.34672 26.7982 8.17768 26.9196 7.86888 27.1123C6.62104 27.9465 5.71406 29.1126 5.31224 30.5781C5.31224 30.7946 5.31224 31.0112 5.31224 31.2343C6.82817 31.2343 8.34411 31.2343 9.90599 31.2343C10.0865 30.9095 10.2669 30.5846 10.4529 30.2499C11.1032 29.6113 11.5806 29.3442 12.5105 29.3339C13.2878 29.3477 13.7898 29.4589 14.3622 29.9889C15.0042 30.6816 15.0982 31.3827 15.0804 32.3071C15.0042 33.0945 14.6447 33.5584 14.049 34.0533C13.3401 34.5161 12.5848 34.4795 11.7654 34.4062C11.0814 34.2263 10.6215 33.7813 10.2341 33.2031C10.1258 32.9865 10.0176 32.77 9.90599 32.5468C8.35396 32.5468 6.80192 32.5468 5.20286 32.5468C5.53399 34.368 6.2259 35.684 7.71849 36.8125C7.83805 36.8779 7.95761 36.9433 8.08079 37.0107C8.37474 37.25 8.37474 37.25 8.45677 37.5781C8.41424 38.108 8.1217 38.5666 7.87272 39.0252C7.36906 40.0144 7.46428 41.5266 7.78001 42.5615C8.35364 44.0077 9.3802 45.0326 10.781 45.6718C11.1044 45.7698 11.3927 45.7945 11.73 45.7936C11.8811 45.7936 11.8811 45.7936 12.0351 45.7936C12.1429 45.793 12.2507 45.7925 12.3618 45.7919C12.5284 45.7916 12.5284 45.7916 12.6983 45.7914C13.0527 45.7908 13.4071 45.7894 13.7615 45.788C14.0019 45.7875 14.2423 45.787 14.4826 45.7865C15.0717 45.7854 15.6607 45.7833 16.2497 45.7812C16.2497 44.915 16.2497 44.0487 16.2497 43.1562C15.9249 42.9757 15.6001 42.7953 15.2654 42.6093C14.6267 41.959 14.3596 41.4815 14.3493 40.5517C14.3631 39.7756 14.4716 39.2671 15.0082 38.7C15.719 38.0512 16.3439 37.9649 17.2944 37.9818C17.9905 38.0441 18.4272 38.2991 18.9089 38.7949C19.3693 39.3836 19.5755 40.0732 19.5242 40.8183C19.4438 41.3227 19.2338 41.7318 18.9841 42.1718C18.9484 42.2499 18.9128 42.328 18.876 42.4085C18.7162 42.6985 18.5272 42.7228 18.2185 42.8281C17.999 42.9359 17.7801 43.0451 17.5622 43.1562C17.5606 43.2644 17.559 43.3726 17.5574 43.4841C17.5511 43.8848 17.5426 44.2855 17.5335 44.6863C17.5299 44.8598 17.5268 45.0334 17.5243 45.207C17.5207 45.4563 17.515 45.7054 17.5088 45.9547C17.5081 46.0325 17.5074 46.1103 17.5067 46.1905C17.5002 46.4094 17.5002 46.4094 17.4529 46.7656C17.1014 46.9999 17.0011 47.0129 16.5955 47.0192C16.4346 47.0225 16.4346 47.0225 16.2704 47.0258C16.1549 47.0271 16.0394 47.0283 15.9203 47.0296C15.7426 47.0328 15.7426 47.0328 15.5613 47.036C15.1824 47.0426 14.8035 47.0476 14.4245 47.0527C14.1678 47.0569 13.9111 47.0611 13.6544 47.0655C13.0248 47.076 12.3951 47.0853 11.7654 47.0937C11.7596 47.3709 11.7554 47.6479 11.7521 47.9251C11.7503 48.0027 11.7486 48.0804 11.7467 48.1603C11.7364 49.3212 12.2316 50.1857 13.0266 51.0098C13.9407 51.8227 14.8819 52.1188 16.0737 52.2715C16.3591 52.3437 16.3591 52.3437 16.5779 52.6718C16.6252 52.8554 16.668 53.0402 16.7077 53.2255C16.9991 54.3325 17.7197 55.1963 18.694 55.7783C19.7587 56.346 20.6331 56.4743 21.8279 56.2812C22.261 56.0646 22.6941 55.8481 23.1404 55.625C23.1404 54.3978 23.1404 53.1706 23.1404 51.9062C22.7794 51.7257 22.4185 51.5453 22.0466 51.3593C21.8001 51.1021 21.8001 51.1021 21.657 50.8535C21.6072 50.7708 21.5574 50.6882 21.5061 50.6031C21.1653 49.9315 21.1587 49.0818 21.3519 48.3601C21.6373 47.7308 22.1011 47.2734 22.7255 46.9805C23.5813 46.667 24.2439 46.7115 25.0766 47.0723C25.6656 47.3788 26.0768 47.8986 26.3122 48.5156C26.4857 49.2942 26.4665 49.9894 26.0935 50.7031C25.6687 51.3287 25.1989 51.7331 24.4529 51.9062C24.442 52.5092 24.4341 53.1122 24.4288 53.7153C24.4266 53.9201 24.4237 54.1248 24.4199 54.3295C24.3774 56.3057 24.3774 56.3057 25.3552 57.9727C26.061 58.5918 26.7968 58.8375 27.7341 58.7968C28.5002 58.7003 28.9164 58.3314 29.4153 57.7629C29.8781 57.0394 29.8426 56.2783 29.8371 55.447C29.8371 55.321 29.8371 55.195 29.8372 55.0652C29.837 54.6504 29.8353 54.2355 29.8336 53.8207C29.8332 53.5324 29.8329 53.2442 29.8327 52.9559C29.832 52.2757 29.8302 51.5955 29.828 50.9153C29.8255 50.1406 29.8243 49.3658 29.8232 48.5911C29.821 46.9982 29.8171 45.4053 29.8122 43.8125C29.7206 43.7859 29.7206 43.7859 29.6271 43.7588C29.3445 43.6766 29.0623 43.5935 28.78 43.5104C28.6359 43.4687 28.6359 43.4687 28.4888 43.4261C26.9729 42.9776 25.6633 42.3183 24.4529 41.2968C24.3099 41.1767 24.3099 41.1767 24.164 41.0541C23.0623 40.0944 22.2173 39.0708 21.4997 37.7968C21.4101 37.6399 21.4101 37.6399 21.3186 37.4798C20.9846 36.8578 20.7443 36.2289 20.5427 35.5546C20.521 35.4821 20.4992 35.4095 20.4768 35.3347C20.1641 34.2253 20.0374 33.1234 20.0437 31.9726C20.0443 31.8533 20.0449 31.7339 20.0456 31.6109C20.085 28.9663 20.9738 26.4685 22.7029 24.4531C22.7794 24.3633 22.856 24.2735 22.9349 24.1809C23.874 23.1083 24.851 22.3127 26.0935 21.6093C26.2105 21.5426 26.3275 21.4759 26.4481 21.4072C27.2036 21.0028 27.9483 20.73 28.7693 20.4925C28.87 20.4629 28.9707 20.4332 29.0744 20.4027C29.3202 20.3304 29.5661 20.2587 29.8122 20.1874C29.8199 18.5359 29.8257 16.8844 29.8292 15.2329C29.8309 14.466 29.8332 13.6991 29.837 12.9322C29.8406 12.1919 29.8425 11.4515 29.8434 10.7111C29.844 10.4289 29.8452 10.1468 29.8469 9.86458C29.8493 9.46872 29.8496 9.0729 29.8495 8.67704C29.8507 8.56092 29.8519 8.44479 29.8531 8.32515C29.849 7.34628 29.6867 6.52527 29.003 5.7978C27.9249 4.8301 26.586 5.23707 25.4919 5.92085ZM34.8243 5.93153C34.2081 6.72179 34.1246 7.50184 34.1376 8.47837C34.1375 8.60546 34.1374 8.73255 34.1374 8.8635C34.1377 9.28074 34.1411 9.69789 34.1445 10.1151C34.1453 10.4055 34.146 10.6959 34.1464 10.9863C34.1477 11.6708 34.1513 12.3552 34.1557 13.0396C34.1606 13.8194 34.163 14.5992 34.1652 15.379C34.1698 16.9818 34.1775 18.5846 34.1872 20.1874C34.2767 20.2152 34.2767 20.2152 34.3679 20.2436C34.6409 20.3285 34.9137 20.4139 35.1866 20.4993C35.3273 20.543 35.3273 20.543 35.4708 20.5876C36.1651 20.8054 36.8227 21.0526 37.4685 21.3906C37.592 21.4546 37.7155 21.5186 37.8428 21.5845C38.7721 22.0823 39.5496 22.6673 40.2734 23.4426C40.4151 23.6027 40.4151 23.6027 40.6404 23.5781C40.6694 23.6425 40.6985 23.7069 40.7284 23.7733C40.8625 24.0219 41.0061 24.1882 41.2009 24.3916C42.9944 26.405 43.7443 29.039 43.9216 31.6718C43.9335 31.8292 43.9335 31.8292 43.9455 31.9897C44.0481 34.7583 42.9211 37.7201 41.0779 39.7656C41.0178 39.8397 40.9577 39.9139 40.8959 39.9903C39.4426 41.7603 37.2448 42.9455 35.064 43.5617C34.9367 43.5983 34.9367 43.5983 34.8068 43.6357C34.6004 43.6951 34.3939 43.7539 34.1872 43.8125C34.1796 45.4782 34.1738 47.144 34.1702 48.8097C34.1686 49.5833 34.1663 50.3568 34.1625 51.1303C34.1589 51.8771 34.157 52.6238 34.1561 53.3706C34.1555 53.6552 34.1543 53.9398 34.1525 54.2244C34.1502 54.6237 34.1498 55.0229 34.15 55.4222C34.1488 55.5393 34.1476 55.6565 34.1464 55.7772C34.1498 56.6076 34.2274 57.3528 34.7683 58.0107C34.9138 58.1291 34.9138 58.1291 35.0622 58.25C35.2077 58.3718 35.2077 58.3718 35.3562 58.496C36.0154 58.8443 36.6553 58.8661 37.3728 58.6806C38.3098 58.3516 38.8257 57.8314 39.3138 56.9776C39.4977 56.592 39.5604 56.2555 39.559 55.8299C39.559 55.7424 39.559 55.6548 39.559 55.5646C39.5584 55.4712 39.5579 55.3777 39.5573 55.2814C39.5571 55.185 39.557 55.0885 39.5568 54.9891C39.5562 54.6815 39.5548 54.3739 39.5535 54.0664C39.5529 53.8576 39.5524 53.6488 39.552 53.44C39.5508 52.9287 39.5489 52.4175 39.5466 51.9062C39.4275 51.857 39.3083 51.8078 39.1856 51.7571C38.518 51.4813 38.0649 51.0654 37.7701 50.4078C37.4924 49.5645 37.5064 48.7649 37.906 47.9687C38.3598 47.2815 38.9694 46.9327 39.7654 46.7656C40.573 46.7022 41.2882 46.8842 41.9324 47.3808C42.5239 47.9421 42.7408 48.5788 42.78 49.3837C42.7524 50.0618 42.5889 50.6005 42.1716 51.1406C41.7689 51.4869 41.363 51.7383 40.8591 51.9062C40.8591 53.1334 40.8591 54.3606 40.8591 55.625C42.2055 56.2981 43.0599 56.5957 44.4736 56.1868C45.6557 55.7318 46.5731 54.9303 47.1127 53.7827C47.2494 53.425 47.3385 53.0565 47.4212 52.6829C47.531 52.4531 47.531 52.4531 47.7694 52.3206C48.1141 52.2242 48.4567 52.1592 48.8093 52.0976C49.8762 51.8744 50.8049 51.368 51.4685 50.4843C51.9615 49.6254 52.2522 48.941 52.241 47.9482C52.2405 47.8662 52.24 47.7842 52.2395 47.6997C52.2382 47.4977 52.2362 47.2957 52.2341 47.0937C52.1677 47.0931 52.1013 47.0924 52.0329 47.0918C51.3427 47.0848 50.6525 47.0755 49.9624 47.065C49.7047 47.0614 49.447 47.0583 49.1893 47.0558C48.8192 47.0521 48.4492 47.0464 48.0792 47.0403C47.9636 47.0396 47.8481 47.0389 47.729 47.0382C47.5681 47.0349 47.5681 47.0349 47.404 47.0316C47.3095 47.0304 47.215 47.0292 47.1177 47.0279C46.8214 46.9747 46.7222 46.898 46.5466 46.6562C46.5184 46.3081 46.5184 46.3081 46.5329 45.8816C46.5348 45.7262 46.5363 45.5707 46.5376 45.4153C46.5412 45.1709 46.5466 44.9272 46.5567 44.683C46.5768 44.153 46.5783 43.6703 46.4372 43.1562C46.1462 42.8887 45.895 42.7608 45.5262 42.6227C45.0554 42.4249 44.8779 42.0813 44.6872 41.625C44.4123 40.9201 44.4154 40.2486 44.6565 39.5319C44.9443 38.8807 45.3951 38.426 46.0322 38.1096C46.7441 37.8832 47.6633 37.8764 48.3513 38.1865C48.9598 38.5547 49.394 39.089 49.6091 39.7656C49.6973 40.6237 49.7289 41.4707 49.1716 42.1718C48.7351 42.6337 48.3288 42.8667 47.7497 43.1562C47.7497 44.0224 47.7497 44.8887 47.7497 45.7812C48.458 45.7964 49.1657 45.8094 49.874 45.8172C50.1143 45.8205 50.3547 45.825 50.595 45.8307C52.5061 45.9042 52.5061 45.9042 54.2029 45.125C54.3165 45.0454 54.4301 44.9659 54.5472 44.884C55.5787 43.9358 56.3301 42.7315 56.4164 41.3032C56.443 40.1834 56.3797 39.26 55.7798 38.2796C55.5465 37.8823 55.5172 37.7032 55.6247 37.25C55.9044 36.9999 56.2007 36.7975 56.5121 36.5886C57.6245 35.836 58.3892 34.6215 58.6872 33.3125C58.7233 33.0598 58.7594 32.8071 58.7966 32.5468C57.2446 32.5468 55.6926 32.5468 54.0935 32.5468C53.8228 33.0341 53.8228 33.0341 53.5466 33.5312C52.8963 34.1699 52.4188 34.437 51.489 34.4472C50.7129 34.4334 50.2044 34.325 49.6373 33.7884C49.0655 33.1619 48.8368 32.5196 48.8435 31.6718C48.9607 30.858 49.2967 30.2236 49.9372 29.7031C50.6692 29.281 51.3579 29.127 52.1764 29.3339C53.1878 29.6756 53.6275 30.3024 54.0935 31.2343C55.6094 31.2343 57.1254 31.2343 58.6872 31.2343C58.528 29.9599 58.1211 29.0177 57.2654 28.0624C57.174 27.9597 57.174 27.9597 57.0808 27.8548C56.6698 27.4191 56.2339 27.1082 55.7145 26.8106C55.5154 26.6406 55.5154 26.6406 55.4098 26.3876C55.4046 25.9846 55.5505 25.7871 55.7683 25.4511C56.4554 24.3835 56.5776 23.1657 56.3481 21.9281C56.1172 20.9803 55.7077 20.166 55.0779 19.4218C55.0115 19.342 54.9451 19.2622 54.8766 19.18C54.2113 18.448 53.3812 17.9857 52.3812 17.9379C52.1654 17.9379 51.9496 17.9409 51.7338 17.9465C51.619 17.9473 51.5042 17.9481 51.3859 17.9489C51.0237 17.9519 50.6617 17.9588 50.2995 17.9658C50.0521 17.9685 49.8047 17.971 49.5572 17.9732C48.9546 17.9788 48.3524 17.9895 47.7497 17.9999C47.7497 18.8662 47.7497 19.7324 47.7497 20.6249C48.0385 20.7693 48.3272 20.9137 48.6247 21.0624C48.87 21.2774 48.87 21.2774 49.0486 21.4931C49.1092 21.564 49.1698 21.6349 49.2323 21.708C49.7208 22.417 49.696 23.1833 49.6091 24.0156C49.3897 24.7527 48.9476 25.1424 48.306 25.5366C47.6161 25.8983 46.7037 25.882 45.9656 25.6562C45.3312 25.3794 44.8386 24.7559 44.5779 24.1249C44.3736 23.1498 44.5239 22.4358 44.9949 21.5751C45.3947 21.0839 45.8565 20.849 46.4372 20.6249C46.4394 20.5168 46.4416 20.4086 46.4438 20.2971C46.4521 19.8963 46.4618 19.4956 46.472 19.0949C46.4762 18.9213 46.48 18.7477 46.4834 18.5742C46.4884 18.3249 46.4947 18.0757 46.5013 17.8265C46.5026 17.7487 46.5039 17.6708 46.5052 17.5907C46.5217 17.0405 46.5217 17.0405 46.7654 16.7968C46.9993 16.7664 46.9993 16.7664 47.2922 16.7619C47.4564 16.7587 47.4564 16.7587 47.624 16.7554C47.7424 16.7541 47.8609 16.7528 47.983 16.7515C48.1041 16.7494 48.2252 16.7473 48.3499 16.7451C48.7377 16.7386 49.1256 16.7335 49.5134 16.7285C49.7759 16.7243 50.0384 16.72 50.3008 16.7156C50.9452 16.7051 51.5897 16.6958 52.2341 16.6874C52.2405 16.4468 52.2449 16.2061 52.2486 15.9654C52.2513 15.8314 52.254 15.6973 52.2568 15.5593C52.2028 14.6006 51.7036 13.6487 51.031 12.9687C50.1703 12.2512 49.4213 11.9114 48.3171 11.7929C47.9463 11.7399 47.9463 11.7399 47.6404 11.6562C47.4311 11.3518 47.3852 11.2319 47.3122 10.8906C46.9137 9.73441 46.3808 8.93199 45.3435 8.26557C45.2799 8.22271 45.2163 8.17985 45.1508 8.13569C44.3414 7.65812 43.2139 7.50121 42.2947 7.67085C41.7359 7.85116 41.7359 7.85116 40.8591 8.37495C40.8591 9.60213 40.8591 10.8293 40.8591 12.0937C41.2201 12.2742 41.581 12.4546 41.9529 12.6406C42.1994 12.8978 42.1994 12.8978 42.3425 13.1464C42.3923 13.2291 42.4421 13.3117 42.4933 13.3968C42.8342 14.0684 42.8408 14.9181 42.6476 15.6398C42.3622 16.2691 41.8984 16.7265 41.274 17.0194C40.3919 17.3425 39.6325 17.2915 38.781 16.9062C38.0943 16.4527 37.7442 15.8426 37.5779 15.0468C37.5143 14.3099 37.6405 13.722 38.0154 13.0781C38.4696 12.5533 38.8888 12.3037 39.5466 12.0937C39.5575 11.5082 39.5654 10.9228 39.5707 10.3373C39.5728 10.1386 39.5758 9.93996 39.5796 9.74131C39.6031 8.48389 39.6038 7.40959 38.9109 6.31049C37.7127 5.14652 36.1575 4.78835 34.8243 5.93153ZM22.7029 13.7343C22.393 14.1991 22.4001 14.6106 22.4841 15.1562C22.7017 15.5819 23.0266 15.8549 23.4685 16.0312C23.9922 16.0677 24.3599 15.995 24.7742 15.6689C25.1695 15.1543 25.1695 15.1543 25.2048 14.5068C25.1232 13.9913 24.8978 13.6852 24.4802 13.372C23.7567 13.151 23.2781 13.255 22.7029 13.7343ZM38.9997 13.8437C38.7453 14.2578 38.7587 14.5559 38.8237 15.0263C38.9508 15.4825 39.2752 15.6895 39.6355 15.9628C40.0207 16.0729 40.3725 16.0362 40.7497 15.9218C41.0734 15.7227 41.3426 15.5018 41.5154 15.1562C41.5785 14.6388 41.5629 14.2651 41.324 13.7958C41.04 13.4725 40.8298 13.3295 40.4054 13.2562C39.7386 13.2363 39.4565 13.3535 38.9997 13.8437ZM24.781 24.0156C24.681 24.1054 24.5811 24.1952 24.4781 24.2877C22.591 26.0692 21.3652 28.5464 21.2395 31.1493C21.2004 32.5765 21.2928 33.9156 21.7185 35.2812C21.7581 35.4087 21.7977 35.5361 21.8385 35.6674C22.7831 38.3569 24.9019 40.5386 27.4402 41.7685C28.3136 42.1759 29.1958 42.4221 30.1404 42.6093C30.2433 42.6302 30.3462 42.6511 30.4523 42.6726C33.388 43.0659 36.1791 42.2602 38.5212 40.4833C38.6813 40.3542 38.8408 40.2243 38.9997 40.0937C39.0781 40.0326 39.1565 39.9716 39.2373 39.9087C41.209 38.2901 42.3661 35.7114 42.6882 33.218C42.9327 30.452 42.2054 27.5954 40.4592 25.4127C40.3746 25.3126 40.29 25.2125 40.2029 25.1093C40.116 25.0047 40.0292 24.9001 39.9397 24.7923C39.3305 24.0886 38.6879 23.5342 37.906 23.0312C37.7914 22.9569 37.6767 22.8826 37.5586 22.806C33.5532 20.3621 28.2531 20.8341 24.781 24.0156ZM15.8122 22.2656C15.5219 22.7143 15.4522 23.0277 15.5456 23.5439C15.658 23.951 15.7907 24.1988 16.1404 24.4531C16.668 24.629 17.1454 24.6505 17.6511 24.4257C18.0343 24.1192 18.1873 23.9149 18.3142 23.4345C18.3308 22.9448 18.2467 22.6878 17.9997 22.2656C17.6502 21.9557 17.4299 21.8406 16.9675 21.7734C16.497 21.8394 16.1722 21.9528 15.8122 22.2656ZM45.9997 22.2656C45.6901 22.705 45.6176 23.0467 45.7101 23.5819C45.8353 23.9614 46.0427 24.1747 46.3279 24.4531C46.8555 24.629 47.333 24.6505 47.8386 24.4257C48.1911 24.1438 48.364 23.9288 48.5017 23.496C48.5199 23.0233 48.438 22.6691 48.1872 22.2656C47.8358 21.9413 47.5012 21.8392 47.032 21.7734C46.5733 21.8401 46.3499 21.9632 45.9997 22.2656ZM11.4372 30.9062C11.1416 31.3449 11.0324 31.6929 11.1091 32.2187C11.3937 32.7371 11.6732 33.0938 12.237 33.2919C12.8108 33.332 13.1823 33.191 13.6179 32.8203C13.8994 32.4386 13.9211 32.0712 13.8973 31.6069C13.7935 31.0993 13.503 30.8339 13.0847 30.5371C12.4408 30.3419 11.9449 30.4909 11.4372 30.9062ZM50.3042 31.107C50.0425 31.5249 50.0737 31.9623 50.156 32.4375C50.3406 32.7787 50.5695 33.027 50.9216 33.2031C51.3655 33.259 51.818 33.3033 52.2256 33.0963C52.5282 32.8521 52.793 32.5973 52.8904 32.2187C52.8639 31.6618 52.8183 31.2379 52.4529 30.7968C51.6254 30.2636 50.9631 30.3715 50.3042 31.107ZM15.7029 39.7656C15.4729 40.2373 15.4558 40.5461 15.6072 41.0507C15.9188 41.6191 15.9188 41.6191 16.4736 41.9057C16.8895 41.9719 17.1885 41.966 17.5964 41.8505C17.9976 41.5427 18.2034 41.2419 18.3279 40.75C18.3297 40.1989 18.1826 39.8556 17.8357 39.4306C17.4548 39.1627 17.0784 39.1405 16.6223 39.1666C16.1657 39.257 16.0035 39.4049 15.7029 39.7656ZM45.8904 39.7656C45.6151 40.2203 45.6628 40.5691 45.781 41.0781C45.9444 41.4564 46.0686 41.5988 46.4167 41.8232C46.7966 41.9647 47.0208 42.0115 47.4216 41.9531C47.9708 41.6516 48.3143 41.3728 48.5017 40.7705C48.524 40.2012 48.3248 39.8188 47.9617 39.3896C47.1767 38.9721 46.4661 39.1179 45.8904 39.7656ZM22.6072 48.5292C22.4341 48.9716 22.409 49.3593 22.4841 49.8281C22.6599 50.1734 22.8094 50.3962 23.113 50.6347C23.6152 50.7742 24.0579 50.7752 24.5349 50.58C24.8571 50.3116 25.0353 50.0992 25.2185 49.7187C25.2669 49.1802 25.1908 48.8354 24.8493 48.413C24.0917 47.8177 23.2907 47.7546 22.6072 48.5292ZM39.1091 48.4062C38.8201 48.8493 38.7042 49.1919 38.781 49.7187C39.0068 50.1301 39.228 50.4949 39.656 50.7031C40.1782 50.7839 40.5423 50.753 41.0163 50.5117C41.3408 50.2268 41.4891 50.0188 41.5483 49.5892C41.551 49.0724 41.5447 48.7019 41.1872 48.2968C40.4415 47.8053 39.7878 47.8201 39.1091 48.4062Z" fill="#EF7717"/>
<path d="M30.4078 26.627C30.797 26.75 30.797 26.75 31.0256 27.1055C31.0962 27.2773 31.1632 27.4507 31.2277 27.625C31.2667 27.7228 31.3058 27.8206 31.346 27.9214C31.4653 28.2222 31.5814 28.5241 31.6967 28.8265C31.8603 29.2524 32.028 29.6767 32.1949 30.1013C32.4621 30.7818 32.7278 31.4628 32.9919 32.1444C33.2851 32.9011 33.5796 33.6572 33.8834 34.4097C33.9345 34.5361 33.9855 34.6625 34.0381 34.7928C34.1302 35.0198 34.2226 35.2466 34.3156 35.4732C34.3555 35.5717 34.3955 35.6702 34.4367 35.7717C34.4879 35.8965 34.4879 35.8965 34.5401 36.0237C34.6649 36.3787 34.7624 36.6868 34.6798 37.0586C34.5157 37.25 34.5157 37.25 34.1398 37.3525C33.7501 37.3594 33.7501 37.3594 33.5787 37.2336C33.3811 36.9784 33.2725 36.724 33.1507 36.425C33.1071 36.3192 33.0635 36.2134 33.0186 36.1045C32.9645 35.9704 32.9104 35.8364 32.8546 35.6982C32.6809 35.2719 32.5072 34.8455 32.3282 34.4062C30.9567 34.3702 29.5851 34.3341 28.172 34.2969C28.1359 34.4773 28.0998 34.6578 28.0626 34.8438C27.9354 35.2183 27.7858 35.5839 27.6388 35.9512C27.6003 36.0503 27.5618 36.1494 27.5222 36.2515C27.4842 36.3467 27.4463 36.4419 27.4072 36.5399C27.3559 36.6696 27.3559 36.6696 27.3035 36.8019C27.1805 37.0453 27.0768 37.1945 26.8595 37.3594C26.4698 37.3457 26.4698 37.3457 26.0939 37.25C25.8751 36.9219 25.8751 36.9219 25.8868 36.7135C26.0466 36.0622 26.2647 35.4489 26.516 34.8275C26.5577 34.7226 26.5994 34.6177 26.6424 34.5096C26.7778 34.1695 26.9143 33.8299 27.0509 33.4902C27.1448 33.2555 27.2387 33.0207 27.3325 32.7859C27.4746 32.4303 27.6168 32.0747 27.7593 31.7193C28.0557 30.9801 28.3485 30.2397 28.6385 29.498C28.7421 29.2344 28.8458 28.9709 28.9495 28.7073C29.0142 28.5425 29.0786 28.3774 29.1426 28.2123C29.2306 27.9857 29.3198 27.7596 29.4093 27.5336C29.4585 27.4078 29.5077 27.2819 29.5584 27.1523C29.7696 26.7253 29.9352 26.6441 30.4078 26.627ZM30.2501 29.0469C30.0318 29.59 29.8137 30.1331 29.5959 30.6764C29.5217 30.8614 29.4474 31.0463 29.3731 31.2312C29.2665 31.4964 29.1601 31.7616 29.0538 32.0269C29.0036 32.1517 29.0036 32.1517 28.9523 32.2789C28.7902 32.6216 28.7902 32.6216 28.7189 32.9844C29.7295 32.9844 30.7401 32.9844 31.7814 32.9844C31.6862 32.5083 31.5509 32.0902 31.3742 31.6424C31.3452 31.5679 31.3163 31.4934 31.2864 31.4167C31.1943 31.1803 31.1016 30.9441 31.0089 30.708C30.9461 30.5472 30.8834 30.3863 30.8207 30.2254C30.6674 29.8324 30.5136 29.4396 30.3595 29.0469C30.3234 29.0469 30.2873 29.0469 30.2501 29.0469Z" fill="#EF7717"/>
<path d="M37.906 26.75C38.0867 27.1115 38.0324 27.5146 38.033 27.912C38.0335 28.0097 38.034 28.1073 38.0346 28.2079C38.0362 28.5319 38.037 28.8558 38.0376 29.1797C38.0382 29.4042 38.0388 29.6287 38.0394 29.8532C38.0406 30.3243 38.0412 30.7953 38.0416 31.2664C38.0422 31.8708 38.0448 32.4752 38.048 33.0796C38.05 33.5434 38.0506 34.0072 38.0507 34.471C38.0511 34.6939 38.0519 34.9168 38.0534 35.1397C38.0552 35.451 38.055 35.7623 38.0543 36.0737C38.0553 36.1663 38.0563 36.2589 38.0574 36.3542C38.0529 36.9809 38.0529 36.9809 37.8731 37.2219C37.6872 37.3593 37.6872 37.3593 37.2976 37.3525C36.9216 37.25 36.9216 37.25 36.7905 37.0827C36.6621 36.6868 36.6725 36.2979 36.6745 35.8862C36.6742 35.793 36.6738 35.6997 36.6734 35.6036C36.6724 35.2956 36.673 34.9877 36.6738 34.6796C36.6736 34.4655 36.6734 34.2514 36.6732 34.0373C36.6728 33.5886 36.6733 33.1399 36.6743 32.6912C36.6756 32.116 36.6749 31.5408 36.6735 30.9656C36.6727 30.5234 36.673 30.0813 36.6736 29.6392C36.6737 29.4271 36.6735 29.215 36.673 29.0029C36.6725 28.7065 36.6733 28.4101 36.6745 28.1137C36.6741 28.026 36.6736 27.9382 36.6732 27.8478C36.679 27.0854 36.679 27.0854 36.9216 26.75C37.2627 26.5794 37.5418 26.6771 37.906 26.75Z" fill="#EF7717"/>
</g>
<defs>
<clipPath id="clip0_3312_109">
<rect width="56" height="56" fill="white" transform="translate(4 4)"/>
</clipPath>
</defs>
</svg>
