<svg width="64" height="64" viewBox="0 0 64 64" fill="none" xmlns="http://www.w3.org/2000/svg">
<path d="M8.90692 32C12.5557 30.3463 15.669 27.4279 18.0895 23.7647C20.0563 20.788 21.594 17.2853 22.625 13.4765C23.656 17.2853 25.1937 20.788 27.1605 23.7647C29.581 27.4279 32.6943 30.3463 36.3431 32C32.6943 33.6539 29.581 36.5724 27.1605 40.2357C25.1937 43.2124 23.656 46.7151 22.625 50.5239C21.594 46.7151 20.0563 43.2124 18.0895 40.2357C15.669 36.5724 12.5557 33.6539 8.90692 32Z" stroke="#EF7717" stroke-width="3"/>
<path d="M41.7048 47.0001C43.137 46.0818 44.3671 44.7959 45.358 43.2961C45.9964 42.33 46.5463 41.2621 46.9995 40.1195C47.4528 41.2621 48.0027 42.33 48.641 43.2961C49.6319 44.7959 50.8621 46.0818 52.2943 47.0001C50.862 47.9187 49.6319 49.2048 48.641 50.7047C48.0027 51.6708 47.4528 52.7388 46.9995 53.8814C46.5463 52.7388 45.9964 51.6708 45.3581 50.7047C44.3672 49.2048 43.137 47.9187 41.7048 47.0001Z" stroke="#EF7717" stroke-width="3"/>
<path d="M46.3929 17.0002C47.8253 16.0818 49.0555 14.7957 50.0465 13.2957C50.6848 12.3296 51.2348 11.2616 51.688 10.1191C52.1412 11.2616 52.6912 12.3296 53.3295 13.2957C54.3204 14.7956 55.5506 16.0816 56.9829 17.0001C55.5506 17.9186 54.3204 19.2048 53.3295 20.7047C52.6911 21.6709 52.1411 22.739 51.6879 23.8817C51.2346 22.739 50.6846 21.6709 50.0461 20.7046C49.0552 19.2048 47.8251 17.9187 46.3929 17.0002Z" stroke="#EF7717" stroke-width="3"/>
</svg>
