<svg width="64" height="64" viewBox="0 0 64 64" fill="none" xmlns="http://www.w3.org/2000/svg">
<path d="M58.1763 31.6339C58.1782 31.6302 58.1771 31.6258 58.179 31.6221C58.2155 31.5416 58.2382 31.4537 58.2382 31.3596C58.2382 31.2654 58.2155 31.1775 58.179 31.0971C58.1773 31.0933 58.1782 31.0889 58.1763 31.0852C56.4717 27.4948 53.8482 24.4121 50.6046 21.9785L54.1364 18.4466C54.3171 18.5174 54.5125 18.5597 54.7183 18.5597C55.602 18.5597 56.3183 17.8433 56.3183 16.9597C56.3183 16.076 55.602 15.3597 54.7183 15.3597C53.8346 15.3597 53.1183 16.076 53.1183 16.9597C53.1183 17.1656 53.1606 17.361 53.2314 17.5416L49.5552 21.2179C46.786 19.3372 43.6138 17.9133 40.1914 17.0318L44.7979 12.4254C44.8329 12.3904 44.8516 12.3468 44.8769 12.3064C45.0656 12.3848 45.2723 12.4289 45.4893 12.4289C46.3729 12.4289 47.0893 11.7127 47.0893 10.8289C47.0893 9.9452 46.3729 9.22894 45.4893 9.22894C44.6056 9.22894 43.8893 9.9452 43.8893 10.8289C43.8893 11.046 43.9335 11.2527 44.0118 11.4414C43.9714 11.4666 43.9281 11.4854 43.8929 11.5204L38.7183 16.6951C36.7544 16.287 34.719 16.0599 32.6383 16.0202V8.18443C33.2029 7.93735 33.5983 7.37547 33.5983 6.71963C33.5983 5.8359 32.882 5.11963 31.9983 5.11963C31.1146 5.11963 30.3983 5.8359 30.3983 6.71963C30.3983 7.37547 30.7937 7.93734 31.3583 8.18464V16.0204C29.2779 16.06 27.2425 16.2872 25.2788 16.6951L20.1043 11.5204C20.0693 11.4854 20.0257 11.4666 19.9853 11.4414C20.0637 11.2527 20.1078 11.046 20.1078 10.8289C20.1078 9.9452 19.3916 9.22894 18.5078 9.22894C17.6243 9.22894 16.9078 9.9452 16.9078 10.8289C16.9078 11.7127 17.6243 12.4289 18.5078 12.4289C18.7251 12.4289 18.9316 12.3848 19.1203 12.3064C19.1455 12.3469 19.1641 12.3902 19.1993 12.4254L23.8057 17.0318C20.383 17.9133 17.2105 19.3373 14.442 21.2179L10.7657 17.5416C10.8363 17.361 10.8786 17.1656 10.8786 16.9597C10.8786 16.076 10.1624 15.3597 9.27864 15.3597C8.39491 15.3597 7.67864 16.076 7.67864 16.9597C7.67864 17.8433 8.39491 18.5597 9.27864 18.5597C9.48447 18.5597 9.67989 18.5174 9.86051 18.4466L13.3924 21.9785C10.1487 24.4123 7.5252 27.4948 5.82067 31.0852C5.81879 31.0889 5.81983 31.0933 5.81796 31.0971C5.7815 31.1775 5.75879 31.2654 5.75879 31.3596C5.75879 31.4537 5.7815 31.5414 5.81796 31.6221C5.81962 31.6258 5.81879 31.6302 5.82067 31.6339C7.52525 35.2243 10.1488 38.307 13.3924 40.7406L9.86051 44.2725C9.67988 44.2017 9.48446 44.1594 9.27864 44.1594C8.39491 44.1594 7.67864 44.8756 7.67864 45.7594C7.67864 46.6429 8.39491 47.3594 9.27864 47.3594C10.1624 47.3594 10.8786 46.6429 10.8786 45.7594C10.8786 45.5535 10.8363 45.3581 10.7655 45.1775L14.4418 41.5012C17.211 43.3819 20.3831 44.8058 23.8055 45.6873L19.1991 50.2937C19.1641 50.3287 19.1453 50.3723 19.1201 50.4127C18.9313 50.3343 18.7247 50.2902 18.5076 50.2902C17.6241 50.2902 16.9076 51.0064 16.9076 51.8902C16.9076 52.7737 17.6241 53.4902 18.5076 53.4902C19.3914 53.4902 20.1076 52.7737 20.1076 51.8902C20.1076 51.6731 20.0635 51.4664 19.9851 51.2777C20.0255 51.2525 20.0689 51.2337 20.1041 51.1987L25.2786 46.024C27.2426 46.4321 29.278 46.6592 31.3586 46.6989V54.5347C30.7941 54.7816 30.3986 55.3436 30.3986 55.9995C30.3986 56.883 31.1149 57.5995 31.9986 57.5995C32.8824 57.5995 33.5986 56.883 33.5986 55.9995C33.5986 55.3436 33.2032 54.7816 32.6386 54.5345V46.6987C34.7191 46.6591 36.7545 46.4319 38.7181 46.024L43.8927 51.1987C43.9277 51.2337 43.9712 51.2525 44.0116 51.2777C43.9333 51.4664 43.8891 51.6731 43.8891 51.8902C43.8891 52.7737 44.6054 53.4902 45.4891 53.4902C46.3726 53.4902 47.0891 52.7737 47.0891 51.8902C47.0891 51.0064 46.3726 50.2902 45.4891 50.2902C45.2718 50.2902 45.0654 50.3343 44.8766 50.4127C44.8514 50.3723 44.8329 50.3289 44.7977 50.2937L40.1912 45.6873C43.6139 44.8058 46.7864 43.3818 49.555 41.5012L53.2312 45.1775C53.1606 45.3581 53.1183 45.5535 53.1183 45.7594C53.1183 46.6429 53.8346 47.3594 54.7183 47.3594C55.602 47.3594 56.3183 46.6429 56.3183 45.7594C56.3183 44.8756 55.602 44.1594 54.7183 44.1594C54.5125 44.1594 54.3171 44.2017 54.1364 44.2725L50.6046 40.7406C53.8483 38.3068 56.4718 35.2243 58.1763 31.6339ZM56.5392 30.7195H40.3184V27.5195H44.7984C44.9684 27.5195 45.1309 27.452 45.2509 27.332L49.6926 22.8904C52.5561 25.0079 54.9028 27.6575 56.5395 30.7197L56.5392 30.7195ZM48.6347 22.1382L44.5332 26.2396H40.3183C40.3183 24.4753 38.8826 23.0396 37.1183 23.0396V20.1046L39.1243 18.0986C42.6049 18.9019 45.8347 20.2738 48.6347 22.1382ZM26.8784 38.3995C25.8196 38.3995 24.9584 37.5383 24.9584 36.4795V26.2395C24.9584 25.1808 25.8196 24.3195 26.8784 24.3195H37.1184C38.1772 24.3195 39.0384 25.1808 39.0384 26.2395V36.4795C39.0384 37.5383 38.1772 38.3995 37.1184 38.3995H26.8784ZM37.6272 17.7862L36.0264 19.387C35.9062 19.507 35.8387 19.6695 35.8387 19.8395V23.0395H32.6387V17.2998C34.3384 17.3334 36.0068 17.4957 37.6272 17.7863L37.6272 17.7862ZM31.3584 17.2997V23.0395H28.1584V19.8395C28.1584 19.6695 28.0909 19.507 27.9709 19.387L26.3701 17.7861C27.9903 17.4955 29.6586 17.3332 31.3584 17.2997L31.3584 17.2997ZM24.8726 18.0985L26.8786 20.1045V23.0395C25.1142 23.0395 23.6786 24.4752 23.6786 26.2395H19.4636L15.3622 22.1381C18.1622 20.2737 21.392 18.9018 24.8726 18.0985ZM14.3046 22.8904L18.7462 27.3321C18.8662 27.4521 19.0287 27.5196 19.1987 27.5196H23.6787V30.7196H7.45791C9.0946 27.6575 11.4413 25.0081 14.3048 22.8902L14.3046 22.8904ZM7.45762 31.9997H23.6784V35.1997H19.1984C19.0284 35.1997 18.8659 35.2672 18.7459 35.3872L14.3043 39.8289C11.4407 37.7114 9.09408 35.0618 7.45733 31.9996L7.45762 31.9997ZM15.3622 40.5811L19.4636 36.4796H23.6786C23.6786 38.244 25.1142 39.6796 26.8786 39.6796V42.6146L24.8726 44.6206C21.3919 43.8173 18.1622 42.4454 15.3622 40.5811ZM26.3702 44.933L27.971 43.3321C28.0912 43.2121 28.1587 43.0496 28.1587 42.8796V39.6796H31.3587V45.4193C29.6589 45.3858 27.9906 45.2235 26.3702 44.9329L26.3702 44.933ZM32.639 45.4194V39.6797H35.839V42.8797C35.839 43.0497 35.9065 43.2122 36.0265 43.3322L37.6273 44.933C36.0071 45.2237 34.3388 45.386 32.639 45.4195L32.639 45.4194ZM39.1248 44.6206L37.1188 42.6146V39.6796C38.8832 39.6796 40.3188 38.244 40.3188 36.4796H44.5338L48.6352 40.5811C45.8352 42.4454 42.6054 43.8173 39.1248 44.6206ZM49.6928 39.8288L45.2512 35.3871C45.1312 35.2671 44.9687 35.1996 44.7987 35.1996H40.3187V31.9996H56.5395C54.9028 35.0617 52.5561 37.7111 49.6925 39.8289L49.6928 39.8288Z" fill="#EF7717"/>
<path d="M34.5604 31.3598C34.5604 32.7736 33.4142 33.9198 32.0004 33.9198C30.5867 33.9198 29.4404 32.7736 29.4404 31.3598C29.4404 29.946 30.5867 28.7998 32.0004 28.7998C33.4142 28.7998 34.5604 29.946 34.5604 31.3598Z" fill="#EF7717"/>
</svg>
