<svg width="40" height="13" viewBox="0 0 40 13" fill="none" xmlns="http://www.w3.org/2000/svg">
<path d="M0.000221646 6.52868C0.00774524 7.01811 0.205919 7.48451 0.55125 7.82552C0.896581 8.16653 1.36085 8.35429 1.84218 8.34758L32.7331 8.34758V12.1045C32.7331 12.9009 33.6784 13.2996 34.2308 12.7361L39.7424 7.13137C40.0859 6.78214 40.0859 6.21747 39.7424 5.86824L34.2308 0.263546C33.6784 -0.300027 32.7331 0.100566 32.7331 0.895111V4.65202L1.84218 4.65202C1.59907 4.64864 1.35776 4.69489 1.13255 4.78805C0.907333 4.88121 0.702792 5.01937 0.531036 5.19436C0.359281 5.36936 0.223803 5.57761 0.132626 5.80681C0.0414481 6.036 -0.00357541 6.28147 0.000221646 6.52868Z" fill="white"/>
</svg>
