<svg width="24" height="24" viewBox="0 0 16 16" fill="none" xmlns="http://www.w3.org/2000/svg">
<path d="M15.281 14.2683C15.3507 14.3399 15.406 14.4249 15.4437 14.5184C15.4814 14.612 15.5008 14.7122 15.5008 14.8135C15.5008 14.9147 15.4814 15.015 15.4437 15.1085C15.406 15.2021 15.3507 15.2871 15.281 15.3587C15.2114 15.4303 15.1286 15.4871 15.0376 15.5258C14.9465 15.5646 14.849 15.5845 14.7504 15.5845C14.6519 15.5845 14.5543 15.5646 14.4632 15.5258C14.3722 15.4871 14.2895 15.4303 14.2198 15.3587L8.00042 8.96761L1.78104 15.3587C1.64031 15.5033 1.44944 15.5845 1.25042 15.5845C1.05139 15.5845 0.860522 15.5033 0.719792 15.3587C0.579062 15.2141 0.5 15.018 0.5 14.8135C0.5 14.609 0.579062 14.4129 0.719792 14.2683L6.9401 7.87819L0.719792 1.48808C0.579062 1.34349 0.5 1.14738 0.5 0.942892C0.5 0.738405 0.579062 0.542294 0.719792 0.397701C0.860522 0.253107 1.05139 0.171875 1.25042 0.171875C1.44944 0.171875 1.64031 0.253107 1.78104 0.397701L8.00042 6.78877L14.2198 0.397701C14.3605 0.253107 14.5514 0.171875 14.7504 0.171875C14.9494 0.171875 15.1403 0.253107 15.281 0.397701C15.4218 0.542294 15.5008 0.738405 15.5008 0.942892C15.5008 1.14738 15.4218 1.34349 15.281 1.48808L9.06073 7.87819L15.281 14.2683Z" fill="white"/>
</svg>
