<svg width="24" height="24" viewBox="0 0 24 24" fill="none" xmlns="http://www.w3.org/2000/svg">
<mask id="path-1-inside-1_1504_1767" fill="white">
<path d="M19.2806 18.2193C19.3502 18.289 19.4055 18.3717 19.4432 18.4628C19.4809 18.5538 19.5003 18.6514 19.5003 18.7499C19.5003 18.8485 19.4809 18.9461 19.4432 19.0371C19.4055 19.1281 19.3502 19.2109 19.2806 19.2806C19.2109 19.3502 19.1281 19.4055 19.0371 19.4432C18.9461 19.4809 18.8485 19.5003 18.7499 19.5003C18.6514 19.5003 18.5538 19.4809 18.4628 19.4432C18.3717 19.4055 18.289 19.3502 18.2193 19.2806L11.9999 13.0602L5.78055 19.2806C5.63982 19.4213 5.44895 19.5003 5.24993 19.5003C5.05091 19.5003 4.86003 19.4213 4.7193 19.2806C4.57857 19.1398 4.49951 18.949 4.49951 18.7499C4.49951 18.5509 4.57857 18.36 4.7193 18.2193L10.9396 11.9999L4.7193 5.78055C4.57857 5.63982 4.49951 5.44895 4.49951 5.24993C4.49951 5.05091 4.57857 4.86003 4.7193 4.7193C4.86003 4.57857 5.05091 4.49951 5.24993 4.49951C5.44895 4.49951 5.63982 4.57857 5.78055 4.7193L11.9999 10.9396L18.2193 4.7193C18.36 4.57857 18.5509 4.49951 18.7499 4.49951C18.949 4.49951 19.1398 4.57857 19.2806 4.7193C19.4213 4.86003 19.5003 5.05091 19.5003 5.24993C19.5003 5.44895 19.4213 5.63982 19.2806 5.78055L13.0602 11.9999L19.2806 18.2193Z"/>
</mask>
<path d="M19.2806 18.2193C19.3502 18.289 19.4055 18.3717 19.4432 18.4628C19.4809 18.5538 19.5003 18.6514 19.5003 18.7499C19.5003 18.8485 19.4809 18.9461 19.4432 19.0371C19.4055 19.1281 19.3502 19.2109 19.2806 19.2806C19.2109 19.3502 19.1281 19.4055 19.0371 19.4432C18.9461 19.4809 18.8485 19.5003 18.7499 19.5003C18.6514 19.5003 18.5538 19.4809 18.4628 19.4432C18.3717 19.4055 18.289 19.3502 18.2193 19.2806L11.9999 13.0602L5.78055 19.2806C5.63982 19.4213 5.44895 19.5003 5.24993 19.5003C5.05091 19.5003 4.86003 19.4213 4.7193 19.2806C4.57857 19.1398 4.49951 18.949 4.49951 18.7499C4.49951 18.5509 4.57857 18.36 4.7193 18.2193L10.9396 11.9999L4.7193 5.78055C4.57857 5.63982 4.49951 5.44895 4.49951 5.24993C4.49951 5.05091 4.57857 4.86003 4.7193 4.7193C4.86003 4.57857 5.05091 4.49951 5.24993 4.49951C5.44895 4.49951 5.63982 4.57857 5.78055 4.7193L11.9999 10.9396L18.2193 4.7193C18.36 4.57857 18.5509 4.49951 18.7499 4.49951C18.949 4.49951 19.1398 4.57857 19.2806 4.7193C19.4213 4.86003 19.5003 5.05091 19.5003 5.24993C19.5003 5.44895 19.4213 5.63982 19.2806 5.78055L13.0602 11.9999L19.2806 18.2193Z" fill="#04081D"/>
<path d="M19.2806 18.2193L22.109 15.3909L22.1088 15.3907L19.2806 18.2193ZM18.7499 19.5003V23.5003V19.5003ZM18.2193 19.2806L15.3907 22.1088L15.3909 22.109L18.2193 19.2806ZM11.9999 13.0602L14.8286 10.232L11.9999 7.40296L9.17129 10.232L11.9999 13.0602ZM5.78055 19.2806L8.60898 22.109L8.60919 22.1088L5.78055 19.2806ZM4.7193 18.2193L1.89109 15.3907L1.89088 15.3909L4.7193 18.2193ZM10.9396 11.9999L13.7678 14.8286L16.5969 11.9999L13.7678 9.17129L10.9396 11.9999ZM4.7193 5.78055L1.89088 8.60898L1.89109 8.60919L4.7193 5.78055ZM5.24993 4.49951L5.24993 0.499512L5.24993 4.49951ZM5.78055 4.7193L8.60919 1.89109L8.60898 1.89088L5.78055 4.7193ZM11.9999 10.9396L9.17129 13.7678L11.9999 16.5969L14.8286 13.7678L11.9999 10.9396ZM18.2193 4.7193L15.3909 1.89088L15.3907 1.89109L18.2193 4.7193ZM19.2806 5.78055L22.1088 8.60919L22.109 8.60898L19.2806 5.78055ZM13.0602 11.9999L10.232 9.17129L7.40296 11.9999L10.232 14.8286L13.0602 11.9999ZM16.4521 21.0477C16.1504 20.746 15.911 20.3877 15.7477 19.9935L23.1387 16.932C22.9 16.3557 22.5501 15.832 22.109 15.3909L16.4521 21.0477ZM15.7477 19.9935C15.5844 19.5993 15.5003 19.1767 15.5003 18.7499H23.5003C23.5003 18.1261 23.3775 17.5083 23.1387 16.932L15.7477 19.9935ZM15.5003 18.7499C15.5003 18.3232 15.5844 17.9006 15.7477 17.5064L23.1387 20.5678C23.3775 19.9915 23.5003 19.3738 23.5003 18.7499H15.5003ZM15.7477 17.5064C15.911 17.1121 16.1504 16.7539 16.4521 16.4521L22.109 22.109C22.5501 21.6678 22.9 21.1442 23.1387 20.5678L15.7477 17.5064ZM16.4521 16.4521C16.7539 16.1504 17.1121 15.911 17.5064 15.7477L20.5678 23.1387C21.1442 22.9 21.6678 22.5501 22.109 22.109L16.4521 16.4521ZM17.5064 15.7477C17.9006 15.5844 18.3232 15.5003 18.7499 15.5003V23.5003C19.3738 23.5003 19.9915 23.3775 20.5678 23.1387L17.5064 15.7477ZM18.7499 15.5003C19.1767 15.5003 19.5993 15.5844 19.9935 15.7477L16.932 23.1387C17.5083 23.3775 18.1261 23.5003 18.7499 23.5003V15.5003ZM19.9935 15.7477C20.3877 15.911 20.746 16.1504 21.0477 16.4521L15.3909 22.109C15.832 22.5501 16.3557 22.9 16.932 23.1387L19.9935 15.7477ZM21.0479 16.4523L14.8286 10.232L9.17129 15.8885L15.3907 22.1088L21.0479 16.4523ZM9.17129 10.232L2.95191 16.4523L8.60919 22.1088L14.8286 15.8885L9.17129 10.232ZM2.95213 16.4521C3.56154 15.8427 4.38808 15.5003 5.24993 15.5003L5.24993 23.5003C6.50982 23.5003 7.71811 22.9999 8.60898 22.109L2.95213 16.4521ZM5.24993 15.5003C6.11178 15.5003 6.93832 15.8427 7.54773 16.4521L1.89088 22.109C2.78175 22.9999 3.99004 23.5003 5.24993 23.5003L5.24993 15.5003ZM7.54773 16.4521C8.15715 17.0615 8.49951 17.8881 8.49951 18.7499H0.499512C0.499512 20.0098 0.999999 21.2181 1.89088 22.109L7.54773 16.4521ZM8.49951 18.7499C8.49951 19.6118 8.15715 20.4383 7.54773 21.0477L1.89088 15.3909C0.999999 16.2818 0.499512 17.49 0.499512 18.7499H8.49951ZM7.54752 21.0479L13.7678 14.8286L8.1114 9.17129L1.89109 15.3907L7.54752 21.0479ZM13.7678 9.17129L7.54752 2.95191L1.89109 8.60919L8.1114 14.8286L13.7678 9.17129ZM7.54773 2.95213C8.15715 3.56154 8.49951 4.38809 8.49951 5.24993L0.499512 5.24993C0.499512 6.50982 1 7.7181 1.89088 8.60898L7.54773 2.95213ZM8.49951 5.24993C8.49951 6.11177 8.15715 6.93832 7.54773 7.54773L1.89088 1.89088C1 2.78175 0.499512 3.99004 0.499512 5.24993L8.49951 5.24993ZM7.54773 7.54773C6.93832 8.15715 6.11177 8.49951 5.24993 8.49951L5.24993 0.499512C3.99004 0.499512 2.78175 1 1.89088 1.89088L7.54773 7.54773ZM5.24993 8.49951C4.38809 8.49951 3.56154 8.15715 2.95213 7.54773L8.60898 1.89088C7.7181 1 6.50982 0.499512 5.24993 0.499512L5.24993 8.49951ZM2.95191 7.54752L9.17129 13.7678L14.8286 8.1114L8.60919 1.89109L2.95191 7.54752ZM14.8286 13.7678L21.0479 7.54752L15.3907 1.89109L9.17129 8.1114L14.8286 13.7678ZM21.0477 7.54773C20.4383 8.15715 19.6118 8.49951 18.7499 8.49951V0.499512C17.49 0.499512 16.2818 0.999999 15.3909 1.89088L21.0477 7.54773ZM18.7499 8.49951C17.8881 8.49951 17.0615 8.15715 16.4521 7.54773L22.109 1.89088C21.2181 0.999999 20.0098 0.499512 18.7499 0.499512V8.49951ZM16.4521 7.54773C15.8427 6.93832 15.5003 6.11178 15.5003 5.24993L23.5003 5.24993C23.5003 3.99004 22.9999 2.78175 22.109 1.89088L16.4521 7.54773ZM15.5003 5.24993C15.5003 4.38808 15.8427 3.56154 16.4521 2.95213L22.109 8.60898C22.9999 7.71811 23.5003 6.50982 23.5003 5.24993L15.5003 5.24993ZM16.4523 2.95191L10.232 9.17129L15.8885 14.8286L22.1088 8.60919L16.4523 2.95191ZM10.232 14.8286L16.4523 21.0479L22.1088 15.3907L15.8885 9.17129L10.232 14.8286Z" fill="black" mask="url(#path-1-inside-1_1504_1767)"/>
</svg>
