<svg width="24" height="24" viewBox="0 0 24 24" fill="none" xmlns="http://www.w3.org/2000/svg">
<path d="M6.97828 10.8722C8.32228 13.5136 10.4876 15.6789 13.1289 17.0229L15.1823 14.9696C15.4436 14.7082 15.8076 14.6336 16.1343 14.7362C17.1796 15.0816 18.2996 15.2682 19.4663 15.2682C19.7138 15.2682 19.9512 15.3666 20.1262 15.5416C20.3013 15.7166 20.3996 15.954 20.3996 16.2016V19.4682C20.3996 19.7158 20.3013 19.9532 20.1262 20.1282C19.9512 20.3032 19.7138 20.4016 19.4663 20.4016C15.2582 20.4016 11.2224 18.7299 8.24685 15.7543C5.27127 12.7787 3.59961 8.743 3.59961 4.5349C3.59961 4.28736 3.69794 4.04996 3.87298 3.87493C4.04801 3.6999 4.28541 3.60156 4.53294 3.60156H7.79961C8.04714 3.60156 8.28454 3.6999 8.45958 3.87493C8.63461 4.04996 8.73294 4.28736 8.73294 4.5349C8.73294 5.70156 8.91961 6.82156 9.26494 7.8669C9.36761 8.19356 9.29294 8.55756 9.03161 8.8189L6.97828 10.8722Z" fill="#B5AEC4"/>
</svg>
