<?xml version="1.0" encoding="UTF-8"?>
<svg version="1.1" xmlns="http://www.w3.org/2000/svg" width="3406" height="700">
<path d="M0 0 C1.09699219 0.36222656 2.19398438 0.72445312 3.32421875 1.09765625 C27.4802101 9.53081299 46.89317055 27.93759451 58.14746094 50.62353516 C67.27747089 69.92044411 69.35465316 90.06059622 66.53515625 111.03515625 C66.41418579 112.01657593 66.41418579 112.01657593 66.29077148 113.01782227 C66 115 66 115 65.52368164 116.98022461 C64.63708078 121.1568377 64.90153963 123.45777892 67.17578125 127.12109375 C68.20176553 128.57392905 69.24861493 130.01218505 70.3125 131.4375 C71.43451432 133.03137874 72.55293666 134.62779141 73.66796875 136.2265625 C74.23177246 137.02610352 74.79557617 137.82564453 75.37646484 138.64941406 C115.78166074 197.14884656 129.40360447 277.78612636 117.1875 347.125 C113.00912422 369.4357653 106.18227429 390.65919089 96.69921875 411.27734375 C96.26029297 412.2526001 96.26029297 412.2526001 95.8125 413.24755859 C95.12856593 414.72270244 94.37454706 416.1650594 93.60546875 417.59765625 C92.69439683 421.21255452 94.02552968 423.19493337 95.625 426.5 C96.20153896 427.75034525 96.77307047 429.00301033 97.33984375 430.2578125 C97.62456543 430.8859082 97.90928711 431.51400391 98.20263672 432.16113281 C110.68619208 460.95052013 109.64944575 496.32857333 98.3984375 525.2578125 C93.05608635 538.25000194 86.2620028 550.38728846 77 561 C76.278125 561.83144531 75.55625 562.66289063 74.8125 563.51953125 C72.576182 566.04703648 70.29740964 568.5280031 68 571 C67.32582031 571.75152344 66.65164063 572.50304687 65.95703125 573.27734375 C45.26720551 595.36460612 11.55154055 607.14999789 -18.13671875 608.23828125 C-50.11364426 608.87672693 -78.64283084 599.57588095 -104 580 C-105.15549445 578.80090199 -106.30298688 577.59396819 -107.4375 576.375 C-109.73189469 574.34426436 -110.82281992 574.01273998 -113.93359375 573.7890625 C-118.8652251 574.09134183 -123.72836584 574.81562679 -128.61523438 575.52416992 C-140.07248023 577.06665899 -151.40177773 577.33973374 -162.95410156 577.31567383 C-166.09996625 577.31252506 -169.24487635 577.33603049 -172.390625 577.36132812 C-190.86975142 577.41970387 -209.02421316 575.54365599 -227.0625 571.4375 C-228.72140259 571.06069092 -228.72140259 571.06069092 -230.41381836 570.67626953 C-286.27981536 557.42151988 -334.84636236 527.45203241 -376 488 C-376.56428711 487.46439453 -377.12857422 486.92878906 -377.70996094 486.37695312 C-385.15141542 479.29549552 -391.58078304 471.76165454 -397.78320312 463.57958984 C-399.46285646 461.399141 -401.23566549 459.29968095 -403 457.1875 C-415.74424876 441.24418472 -425.45282487 422.82031 -434 404.375 C-434.46921875 403.36751709 -434.9384375 402.36003418 -435.421875 401.32202148 C-437.87398413 395.92422611 -439.7862741 390.80657503 -441 385 C-442.48306641 384.64421875 -442.48306641 384.64421875 -443.99609375 384.28125 C-448.42427527 383.00938466 -452.13733575 380.87178401 -456.0625 378.5 C-456.80056885 378.05857666 -457.5386377 377.61715332 -458.29907227 377.16235352 C-469.38298336 370.44147397 -479.63896366 363.00319856 -489 354 C-489.49854492 353.53255371 -489.99708984 353.06510742 -490.51074219 352.58349609 C-517.31678648 327.39885084 -532.21151045 294.19955161 -537 258 C-537.13148438 257.05511719 -537.26296875 256.11023438 -537.3984375 255.13671875 C-542.30362701 212.51459911 -528.39739494 171.29604499 -502 138 C-498.50726414 133.83267436 -494.77453831 129.91109903 -491 126 C-490.22269531 125.15953125 -489.44539063 124.3190625 -488.64453125 123.453125 C-464.67080118 98.23452787 -428.11789653 82.08091294 -393.36328125 80.671875 C-379.37450793 80.72919882 -379.37450793 80.72919882 -367.5625 74.4375 C-366.01574972 72.64706601 -364.49379095 70.83485119 -363 69 C-361.28942422 67.47541332 -359.53775371 65.99580761 -357.75 64.5625 C-356.83863281 63.82902344 -355.92726563 63.09554687 -354.98828125 62.33984375 C-339.31120952 50.06459412 -322.90105211 39.45367236 -304.89404297 30.90429688 C-303.0677762 30.03235925 -301.25427216 29.13384305 -299.44140625 28.234375 C-238.46468966 -1.41914325 -162.3019929 -7.59419434 -97.25732422 11.15722656 C-95.91371826 11.53766113 -95.91371826 11.53766113 -94.54296875 11.92578125 C-93.75946045 12.15692627 -92.97595215 12.38807129 -92.16870117 12.6262207 C-87.49537872 13.43167569 -84.47868713 11.17835079 -80.625 8.75 C-73.99420632 4.82925259 -67.35424038 2.24261799 -60 0 C-58.17662109 -0.59167969 -58.17662109 -0.59167969 -56.31640625 -1.1953125 C-38.61389813 -6.44637849 -17.31493803 -6.51178311 0 0 Z M-82 44 C-82.61359375 44.64453125 -83.2271875 45.2890625 -83.859375 45.953125 C-96.95319076 60.03143819 -102.51633686 76.53380077 -102.21484375 95.69921875 C-101.62548754 111.96325374 -96.00983154 125.40313446 -86 138 C-85.37867188 138.82886719 -84.75734375 139.65773438 -84.1171875 140.51171875 C-73.65147287 152.81182985 -56.83862029 160.96281941 -41 163 C-19.22630318 164.57266783 -0.15859326 158.61706031 16.5 144.5 C29.14266128 132.70726553 37.36050744 115.99594292 38.25390625 98.71484375 C38.95514233 78.03475425 33.33647638 59.41440694 19 44 C7.79736629 32.27631356 -8.7424995 23.38002124 -25.15234375 22.796875 C-46.83690279 22.44042272 -66.93114911 27.30208414 -82 44 Z M-284 53 C-284.79212891 53.34256836 -285.58425781 53.68513672 -286.40039062 54.03808594 C-314.63180994 65.86390351 -314.63180994 65.86390351 -336 86 C-331.03883416 87.19861876 -331.03883416 87.19861876 -326.39453125 85.55078125 C-325.54246094 84.81214844 -324.69039062 84.07351562 -323.8125 83.3125 C-309.52952465 71.68509491 -292.78694284 63.36979706 -276 56 C-275.24009766 55.66629395 -274.48019531 55.33258789 -273.69726562 54.98876953 C-249.6329672 44.61860739 -223.03198415 39.25217779 -197 37 C-195.74960937 36.88785156 -194.49921875 36.77570313 -193.2109375 36.66015625 C-168.19472205 34.70492742 -143.78876974 36.88272635 -119.20043945 41.66455078 C-116.71192445 42.10047022 -116.71192445 42.10047022 -113 42 C-112.34 40.68 -111.68 39.36 -111 38 C-127.47874717 32.94343739 -144.78714763 30.5916918 -162 30 C-162.76699219 29.97276855 -163.53398437 29.94553711 -164.32421875 29.91748047 C-205.44364918 28.6659511 -246.31917711 36.52809742 -284 53 Z M-220 68 C-221.02770508 68.19835449 -222.05541016 68.39670898 -223.11425781 68.60107422 C-246.63911152 73.24034957 -269.30308097 81.87948259 -290 94 C-291.07121094 94.62390625 -292.14242187 95.2478125 -293.24609375 95.890625 C-295.51362794 97.23667858 -297.76551944 98.60001832 -300 100 C-299.34 100.99 -298.68 101.98 -298 103 C-292.78117655 102.49660955 -289.09024961 99.75933645 -284.75 97.0625 C-254.94207829 79.27456002 -217.31656898 69.00871885 -182.546875 68.796875 C-181.7721283 68.79004196 -180.99738159 68.78320892 -180.19915771 68.77616882 C-177.71606009 68.75922322 -175.23315197 68.7528493 -172.75 68.75 C-171.9046167 68.74799591 -171.0592334 68.74599182 -170.18823242 68.743927 C-157.22145237 68.73639104 -144.75109067 69.49902388 -132 72 C-130.00084307 72.33835289 -128.00118519 72.67385748 -126 73 C-126.33 71.35 -126.66 69.7 -127 68 C-129.79098957 67.51659331 -132.58269656 67.03820938 -135.375 66.5625 C-136.14972656 66.42779297 -136.92445313 66.29308594 -137.72265625 66.15429688 C-164.64337974 61.59334785 -193.31005204 62.58714733 -220 68 Z M-269 120 C-269.4363022 123.96348163 -269.4363022 123.96348163 -267.1640625 126.12109375 C-266.32617188 126.88550781 -265.48828125 127.64992187 -264.625 128.4375 C-236.15387228 155.86307783 -221.33651703 197.02048072 -220 236 C-219.72860533 264.15235083 -225.88388868 291.46409545 -240 316 C-240.37882324 316.6590332 -240.75764648 317.31806641 -241.14794922 317.99707031 C-263.29171795 355.93448974 -296.31532072 381.05706523 -338.75 392.3125 C-346.31489757 394.25588533 -353.78265199 395.80432646 -361.55078125 396.67578125 C-364.00116191 396.86476058 -364.00116191 396.86476058 -366 398 C-364.42634469 402.53939032 -362.04604234 406.23906799 -359.375 410.1875 C-358.92624512 410.85386475 -358.47749023 411.52022949 -358.01513672 412.20678711 C-354.27417578 417.70393983 -350.29229066 422.91964172 -346 428 C-345.54866699 428.54011719 -345.09733398 429.08023437 -344.63232422 429.63671875 C-306.15626443 475.64042732 -250.02966321 508.041814 -189.96679688 514.31689453 C-181.60001788 515.04138502 -173.26918263 515.15074903 -164.875 515.125 C-163.575625 515.12886719 -162.27625 515.13273437 -160.9375 515.13671875 C-159.69742188 515.13542969 -158.45734375 515.13414062 -157.1796875 515.1328125 C-155.50495361 515.13112061 -155.50495361 515.13112061 -153.79638672 515.12939453 C-150.9161377 515.12317877 -150.9161377 515.12317877 -148 514 C-148.40645165 510.477419 -148.81236244 506.98432819 -149.4765625 503.5 C-155.98794069 469.29096831 -149.17466475 435.28148947 -129.86181641 406.29150391 C-124.81670655 399.03628073 -119.05231689 392.42308946 -113 386 C-112.37738281 385.31292969 -111.75476563 384.62585938 -111.11328125 383.91796875 C-90.30026474 361.79595749 -57.88009441 350.96048155 -28.23046875 349.6171875 C7.13390763 348.70002786 38.45360213 360.6258132 65 384 C66.93312369 385.89140159 68.82124349 387.80236767 70.66015625 389.78515625 C71.94550667 391.22390157 71.94550667 391.22390157 74 391 C86.10843887 361.6955429 92.22393396 331.62585281 92.25 299.9375 C92.25067474 299.19389221 92.25134949 298.45028442 92.25204468 297.68414307 C92.17802366 245.88188199 76.86516894 196.09492988 50 152 C46.35601185 153.21466272 45.69133918 154.45096495 43.4375 157.5 C28.11630897 177.05541109 5.15299409 187.31232012 -19.0625 190.59375 C-47.71156398 193.54960581 -72.74414554 184.74542242 -95 167 C-95.96679688 166.28263672 -95.96679688 166.28263672 -96.953125 165.55078125 C-116.90428243 150.02803493 -124.14565976 124.72114604 -128 101 C-145.88683351 97.573981 -145.88683351 97.573981 -164 96 C-165.26070312 95.96003906 -166.52140625 95.92007813 -167.8203125 95.87890625 C-203.26816554 95.13365503 -237.51767285 103.96183334 -269 120 Z M-432.625 190.625 C-446.93479842 207.13825411 -451.05836667 225.71087049 -450 247 C-448.24375814 264.369232 -438.77123233 281.13561757 -425.390625 292.27734375 C-407.98542252 304.81932789 -389.63150161 310.2062552 -368.28515625 307.53515625 C-351.0785375 304.26415674 -334.22512057 295.67082517 -324 281 C-312.17172982 262.24567048 -306.57830421 243.37818577 -311.5625 221.3125 C-316.09040889 203.18634525 -326.92288892 187.5615994 -342.99365234 177.87207031 C-372.95346062 160.41897395 -408.57805784 165.55041074 -432.625 190.625 Z M-405 396 C-403.49126714 401.158893 -401.23735176 405.58908412 -398.625 410.25 C-397.97168701 411.41885742 -397.97168701 411.41885742 -397.30517578 412.61132812 C-390.22365619 425.07960195 -382.27231091 437.05154058 -373 448 C-372.2059375 448.97710937 -371.411875 449.95421875 -370.59375 450.9609375 C-365.4591332 457.23348081 -360.04130517 463.13904901 -354.3125 468.875 C-353.70720459 469.48110107 -353.10190918 470.08720215 -352.47827148 470.71166992 C-339.38141752 483.64887105 -324.58996969 495.22746974 -309 505 C-308.34064453 505.41846191 -307.68128906 505.83692383 -307.00195312 506.26806641 C-297.21606907 512.46447412 -287.32517565 518.14001655 -276.85888672 523.10449219 C-275.13134234 523.9367266 -273.42583538 524.81428778 -271.72265625 525.6953125 C-229.72017761 546.77006841 -180.25890854 552.50812433 -134 547 C-134.66 545.35 -135.32 543.7 -136 542 C-137.29550781 542.0721875 -138.59101563 542.144375 -139.92578125 542.21875 C-191.17085811 544.95577479 -239.35638827 537.37194545 -285 513 C-285.74266113 512.6066748 -286.48532227 512.21334961 -287.25048828 511.80810547 C-295.62572607 507.34955887 -303.74458308 502.8191178 -311.3046875 497.05078125 C-313.28839942 495.54143522 -315.27628066 494.09063821 -317.3203125 492.66796875 C-325.62506 486.88584731 -333.42933172 480.71378349 -341 474 C-341.55075195 473.51241211 -342.10150391 473.02482422 -342.66894531 472.52246094 C-364.24884786 453.29718501 -387.89035428 426.54809795 -398.11328125 399 C-398.40589844 398.34 -398.69851563 397.68 -399 397 C-402.05272465 396.10169161 -402.05272465 396.10169161 -405 396 Z M-76.75 429.6875 C-88.27765073 443.16083406 -95.70448611 460.70091838 -95.1875 478.6015625 C-93.72990984 497.24656991 -87.43997999 515.28406938 -73.53125 528.3125 C-56.60951388 542.70570084 -39.59691197 548.63963718 -17.59765625 547.23925781 C0.29712058 545.59105468 14.64225349 537.63482603 27 525 C27.66644531 524.36578125 28.33289063 523.7315625 29.01953125 523.078125 C40.93670716 510.91883942 45.98236819 492.55626553 46 476 C44.83642368 455.96533139 37.53638334 438.99381227 23 425 C-6.66512536 399.55535759 -49.44314032 401.26035889 -76.75 429.6875 Z " fill="#EE7717" transform="translate(599,42)"/>
<path d="M0 0 C1.09699219 0.36222656 2.19398438 0.72445312 3.32421875 1.09765625 C27.4802101 9.53081299 46.89317055 27.93759451 58.14746094 50.62353516 C67.27747089 69.92044411 69.35465316 90.06059622 66.53515625 111.03515625 C66.41418579 112.01657593 66.41418579 112.01657593 66.29077148 113.01782227 C66 115 66 115 65.52368164 116.98022461 C64.63708078 121.1568377 64.90153963 123.45777892 67.17578125 127.12109375 C68.20176553 128.57392905 69.24861493 130.01218505 70.3125 131.4375 C71.43451432 133.03137874 72.55293666 134.62779141 73.66796875 136.2265625 C74.23177246 137.02610352 74.79557617 137.82564453 75.37646484 138.64941406 C115.78166074 197.14884656 129.40360447 277.78612636 117.1875 347.125 C113.00912422 369.4357653 106.18227429 390.65919089 96.69921875 411.27734375 C96.26029297 412.2526001 96.26029297 412.2526001 95.8125 413.24755859 C95.12856593 414.72270244 94.37454706 416.1650594 93.60546875 417.59765625 C92.69439683 421.21255452 94.02552968 423.19493337 95.625 426.5 C96.20153896 427.75034525 96.77307047 429.00301033 97.33984375 430.2578125 C97.62456543 430.8859082 97.90928711 431.51400391 98.20263672 432.16113281 C110.68619208 460.95052013 109.64944575 496.32857333 98.3984375 525.2578125 C93.05608635 538.25000194 86.2620028 550.38728846 77 561 C76.278125 561.83144531 75.55625 562.66289063 74.8125 563.51953125 C72.576182 566.04703648 70.29740964 568.5280031 68 571 C67.32582031 571.75152344 66.65164063 572.50304687 65.95703125 573.27734375 C45.26720551 595.36460612 11.55154055 607.14999789 -18.13671875 608.23828125 C-50.11364426 608.87672693 -78.64283084 599.57588095 -104 580 C-105.15549445 578.80090199 -106.30298688 577.59396819 -107.4375 576.375 C-109.73189469 574.34426436 -110.82281992 574.01273998 -113.93359375 573.7890625 C-118.8652251 574.09134183 -123.72836584 574.81562679 -128.61523438 575.52416992 C-140.07248023 577.06665899 -151.40177773 577.33973374 -162.95410156 577.31567383 C-166.09996625 577.31252506 -169.24487635 577.33603049 -172.390625 577.36132812 C-190.86975142 577.41970387 -209.02421316 575.54365599 -227.0625 571.4375 C-228.72140259 571.06069092 -228.72140259 571.06069092 -230.41381836 570.67626953 C-286.27981536 557.42151988 -334.84636236 527.45203241 -376 488 C-376.56428711 487.46439453 -377.12857422 486.92878906 -377.70996094 486.37695312 C-385.15141542 479.29549552 -391.58078304 471.76165454 -397.78320312 463.57958984 C-399.46285646 461.399141 -401.23566549 459.29968095 -403 457.1875 C-415.74424876 441.24418472 -425.45282487 422.82031 -434 404.375 C-434.46921875 403.36751709 -434.9384375 402.36003418 -435.421875 401.32202148 C-437.87398413 395.92422611 -439.7862741 390.80657503 -441 385 C-442.48306641 384.64421875 -442.48306641 384.64421875 -443.99609375 384.28125 C-448.42427527 383.00938466 -452.13733575 380.87178401 -456.0625 378.5 C-456.80056885 378.05857666 -457.5386377 377.61715332 -458.29907227 377.16235352 C-469.38298336 370.44147397 -479.63896366 363.00319856 -489 354 C-489.49854492 353.53255371 -489.99708984 353.06510742 -490.51074219 352.58349609 C-517.31678648 327.39885084 -532.21151045 294.19955161 -537 258 C-537.13148438 257.05511719 -537.26296875 256.11023438 -537.3984375 255.13671875 C-542.30362701 212.51459911 -528.39739494 171.29604499 -502 138 C-498.50726414 133.83267436 -494.77453831 129.91109903 -491 126 C-490.22269531 125.15953125 -489.44539063 124.3190625 -488.64453125 123.453125 C-464.67080118 98.23452787 -428.11789653 82.08091294 -393.36328125 80.671875 C-379.37450793 80.72919882 -379.37450793 80.72919882 -367.5625 74.4375 C-366.01574972 72.64706601 -364.49379095 70.83485119 -363 69 C-361.28942422 67.47541332 -359.53775371 65.99580761 -357.75 64.5625 C-356.83863281 63.82902344 -355.92726563 63.09554687 -354.98828125 62.33984375 C-339.31120952 50.06459412 -322.90105211 39.45367236 -304.89404297 30.90429688 C-303.0677762 30.03235925 -301.25427216 29.13384305 -299.44140625 28.234375 C-238.46468966 -1.41914325 -162.3019929 -7.59419434 -97.25732422 11.15722656 C-95.91371826 11.53766113 -95.91371826 11.53766113 -94.54296875 11.92578125 C-93.75946045 12.15692627 -92.97595215 12.38807129 -92.16870117 12.6262207 C-87.49537872 13.43167569 -84.47868713 11.17835079 -80.625 8.75 C-73.99420632 4.82925259 -67.35424038 2.24261799 -60 0 C-58.17662109 -0.59167969 -58.17662109 -0.59167969 -56.31640625 -1.1953125 C-38.61389813 -6.44637849 -17.31493803 -6.51178311 0 0 Z M-82 44 C-82.61359375 44.64453125 -83.2271875 45.2890625 -83.859375 45.953125 C-96.95319076 60.03143819 -102.51633686 76.53380077 -102.21484375 95.69921875 C-101.62548754 111.96325374 -96.00983154 125.40313446 -86 138 C-85.37867188 138.82886719 -84.75734375 139.65773438 -84.1171875 140.51171875 C-73.65147287 152.81182985 -56.83862029 160.96281941 -41 163 C-19.22630318 164.57266783 -0.15859326 158.61706031 16.5 144.5 C29.14266128 132.70726553 37.36050744 115.99594292 38.25390625 98.71484375 C38.95514233 78.03475425 33.33647638 59.41440694 19 44 C7.79736629 32.27631356 -8.7424995 23.38002124 -25.15234375 22.796875 C-46.83690279 22.44042272 -66.93114911 27.30208414 -82 44 Z M-284 53 C-284.79212891 53.34256836 -285.58425781 53.68513672 -286.40039062 54.03808594 C-314.63180994 65.86390351 -314.63180994 65.86390351 -336 86 C-334.35 86.66 -332.7 87.32 -331 88 C-331.81082031 88.66644531 -332.62164062 89.33289063 -333.45703125 90.01953125 C-334.57575757 90.95023634 -335.69423322 91.88124281 -336.8125 92.8125 C-337.34037109 93.24498047 -337.86824219 93.67746094 -338.41210938 94.12304688 C-338.96318359 94.58388672 -339.51425781 95.04472656 -340.08203125 95.51953125 C-340.695625 96.02895264 -341.30921875 96.53837402 -341.94140625 97.06323242 C-344.1442441 99.04964118 -344.1442441 99.04964118 -346.29296875 101.8215332 C-353.25887002 110.03333038 -353.25887002 110.03333038 -358.95141602 110.85131836 C-363.44245968 111.14257548 -367.891804 110.86869032 -372.375 110.5625 C-375.40293196 110.41851217 -378.43168644 110.3037664 -381.4609375 110.19140625 C-382.19352783 110.15980911 -382.92611816 110.12821198 -383.6809082 110.09565735 C-390.2905684 109.86204293 -396.52046926 110.67992751 -403 112 C-403.76683105 112.14171631 -404.53366211 112.28343262 -405.32373047 112.42944336 C-437.69875703 118.61305049 -465.11165486 137.17182918 -484 164 C-492.73047241 176.95954529 -500.19637916 190.78551664 -504 206 C-504.18046875 206.66773438 -504.3609375 207.33546875 -504.546875 208.0234375 C-512.99681315 239.65361138 -507.28913883 274.15158282 -491.8984375 302.84375 C-474.18327092 332.29612571 -446.60429274 353.30332352 -414 364 C-413.34 364 -412.68 364 -412 364 C-411.83129395 364.60005859 -411.66258789 365.20011719 -411.48876953 365.81835938 C-409.63879882 372.20984135 -407.39104343 378.34352742 -404.875 384.5 C-404.33552734 385.83804688 -404.33552734 385.83804688 -403.78515625 387.203125 C-402.00832662 391.65328766 -402.00832662 391.65328766 -400 396 C-401.65 396 -403.3 396 -405 396 C-403.49126714 401.158893 -401.23735176 405.58908412 -398.625 410.25 C-398.18945801 411.02923828 -397.75391602 411.80847656 -397.30517578 412.61132812 C-390.22365619 425.07960195 -382.27231091 437.05154058 -373 448 C-371.80890625 449.46566406 -371.80890625 449.46566406 -370.59375 450.9609375 C-365.4591332 457.23348081 -360.04130517 463.13904901 -354.3125 468.875 C-353.70720459 469.48110107 -353.10190918 470.08720215 -352.47827148 470.71166992 C-339.38141752 483.64887105 -324.58996969 495.22746974 -309 505 C-308.0109668 505.62769287 -308.0109668 505.62769287 -307.00195312 506.26806641 C-297.21606907 512.46447412 -287.32517565 518.14001655 -276.85888672 523.10449219 C-275.13134234 523.9367266 -273.42583538 524.81428778 -271.72265625 525.6953125 C-229.72017761 546.77006841 -180.25890854 552.50812433 -134 547 C-134.66 545.02 -135.32 543.04 -136 541 C-134.98542725 541.02255859 -133.97085449 541.04511719 -132.92553711 541.06835938 C-129.19928348 541.00347033 -125.85046406 540.5807307 -122.19140625 539.90625 C-120.33032227 539.56787109 -120.33032227 539.56787109 -118.43164062 539.22265625 C-116.51641602 538.86494141 -116.51641602 538.86494141 -114.5625 538.5 C-113.24554603 538.25855034 -111.92848941 538.01765988 -110.61132812 537.77734375 C-107.40650105 537.19037909 -104.20282655 536.59776769 -101 536 C-100.55781128 536.92111572 -100.55781128 536.92111572 -100.10668945 537.86083984 C-91.74386812 554.02564031 -70.1551806 565.83120966 -53.546875 571.66015625 C-28.38564846 579.54409855 -0.80394446 576.90309854 22.640625 565.21875 C47.56873191 552.15354736 62.50290151 529.92588718 71.875 504.0625 C79.50005504 478.70460924 73.5545458 450.68486373 61.37890625 427.9765625 C47.45555187 404.67080384 23.80188188 389.14032233 -2 382 C-28.27668338 376.84258885 -55.65918913 382.44948272 -78.0078125 396.875 C-82.72474284 400.22488265 -86.90925008 403.9159234 -91 408 C-92.23169922 409.21429688 -92.23169922 409.21429688 -93.48828125 410.453125 C-109.11897749 426.6915466 -119.89364454 448.31971298 -121 471 C-121.06445312 472.07378906 -121.12890625 473.14757812 -121.1953125 474.25390625 C-121.59221625 486.51823222 -118.99599506 498.1642374 -116 510 C-120.415959 510.67141148 -124.83287445 511.33631007 -129.25 512 C-131.13138672 512.28617188 -131.13138672 512.28617188 -133.05078125 512.578125 C-134.85869141 512.84882812 -134.85869141 512.84882812 -136.703125 513.125 C-137.81333008 513.29257812 -138.92353516 513.46015625 -140.06738281 513.6328125 C-143 514 -143 514 -147 514 C-155.44446901 477.07999596 -152.15490538 442.64392361 -132.17333984 409.85302734 C-126.68265217 401.1817166 -120.02454339 393.45487578 -113 386 C-112.37738281 385.31292969 -111.75476563 384.62585938 -111.11328125 383.91796875 C-90.30026474 361.79595749 -57.88009441 350.96048155 -28.23046875 349.6171875 C7.13390763 348.70002786 38.45360213 360.6258132 65 384 C66.93312369 385.89140159 68.82124349 387.80236767 70.66015625 389.78515625 C71.94550667 391.22390157 71.94550667 391.22390157 74 391 C86.10843887 361.6955429 92.22393396 331.62585281 92.25 299.9375 C92.25067474 299.19389221 92.25134949 298.45028442 92.25204468 297.68414307 C92.17802366 245.88188199 76.86516894 196.09492988 50 152 C46.35601185 153.21466272 45.69133918 154.45096495 43.4375 157.5 C28.11630897 177.05541109 5.15299409 187.31232012 -19.0625 190.59375 C-47.71156398 193.54960581 -72.74414554 184.74542242 -95 167 C-95.96679688 166.28263672 -95.96679688 166.28263672 -96.953125 165.55078125 C-113.0564701 153.02177677 -123.0181085 131.15548288 -126.53125 111.51953125 C-127.27662349 105.49584056 -127.32295533 99.43737797 -127.375 93.375 C-127.38901855 92.25504639 -127.40303711 91.13509277 -127.41748047 89.98120117 C-127.3083692 70.88533102 -119.59361655 54.61148212 -111 38 C-127.47874717 32.94343739 -144.78714763 30.5916918 -162 30 C-162.76699219 29.97276855 -163.53398437 29.94553711 -164.32421875 29.91748047 C-205.44364918 28.6659511 -246.31917711 36.52809742 -284 53 Z " fill="#D24E00" transform="translate(599,42)"/>
<path d="M0 0 C23.09526779 18.45093897 36.59319841 43.54007791 40.23046875 72.90625 C43.70700453 105.79347929 37.55391312 139.18370596 16.81494141 165.71728516 C0.5999025 185.30839524 -21.83032169 198.32450527 -47.1640625 201.62890625 C-74.74866289 203.75079859 -101.1644228 199.11626998 -122.76953125 180.90625 C-125.73953125 177.93625 -128.70953125 174.96625 -131.76953125 171.90625 C-132.09953125 212.82625 -132.42953125 253.74625 -132.76953125 295.90625 C-150.58953125 295.90625 -168.40953125 295.90625 -186.76953125 295.90625 C-186.76953125 193.60625 -186.76953125 91.30625 -186.76953125 -14.09375 C-169.93953125 -14.09375 -153.10953125 -14.09375 -135.76953125 -14.09375 C-135.27453125 0.26125 -135.27453125 0.26125 -134.76953125 14.90625 C-130.48272126 9.19165734 -130.48272126 9.19165734 -126.20703125 3.46875 C-117.93551359 -5.91706537 -106.43579856 -11.27757126 -94.76953125 -15.09375 C-93.55652344 -15.50753906 -92.34351562 -15.92132813 -91.09375 -16.34765625 C-60.9906379 -25.51734943 -24.99320099 -18.89471894 0 0 Z M-111.76953125 40.90625 C-112.69378906 41.59589844 -113.61804687 42.28554688 -114.5703125 42.99609375 C-115.29605469 43.62644531 -116.02179687 44.25679688 -116.76953125 44.90625 C-116.76953125 45.56625 -116.76953125 46.22625 -116.76953125 46.90625 C-117.42953125 46.90625 -118.08953125 46.90625 -118.76953125 46.90625 C-120.31631627 48.79034963 -121.70840951 50.65036199 -123.08203125 52.65625 C-123.48429932 53.24245117 -123.88656738 53.82865234 -124.30102539 54.43261719 C-134.33524075 69.49506911 -137.33894352 87.32129035 -134.1171875 105.08203125 C-129.89525303 122.53148574 -120.30637966 136.44721069 -105.09912109 145.96777344 C-90.14173103 154.79975614 -72.85318123 155.9578269 -56.15234375 151.94140625 C-40.99587391 147.30345647 -28.06914813 137.2225996 -20.58837891 123.24902344 C-11.83799621 106.11602195 -9.79125887 87.78817653 -15.50390625 69.2421875 C-18.53156816 61.26186876 -22.83540393 53.14423324 -28.76953125 46.90625 C-29.42953125 46.90625 -30.08953125 46.90625 -30.76953125 46.90625 C-31.07503906 46.05353516 -31.07503906 46.05353516 -31.38671875 45.18359375 C-36.33803527 37.02930695 -49.38755478 32.00118567 -58.30078125 29.72265625 C-77.403537 25.74002636 -96.12903698 29.19552816 -111.76953125 40.90625 Z " fill="#D24D00" transform="translate(2740.76953125,269.09375)"/>
<path d="M0 0 C1.02738281 0.58910156 2.05476563 1.17820313 3.11328125 1.78515625 C9.34124453 5.56672731 14.72488591 9.98538537 20 15 C19.04956626 16.33897583 18.08940853 17.67105427 17.125 19 C16.59132813 19.7425 16.05765625 20.485 15.5078125 21.25 C15.01023437 21.8275 14.51265625 22.405 14 23 C13.34 23 12.68 23 12 23 C11.73195557 23.59474121 11.46391113 24.18948242 11.18774414 24.80224609 C9.99020301 27.01812796 8.79681017 28.42079528 6.99609375 30.1640625 C6.13274414 31.01097656 6.13274414 31.01097656 5.25195312 31.875 C4.65318359 32.4525 4.05441406 33.03 3.4375 33.625 C2.24650616 34.78160151 1.05759995 35.94035778 -0.12890625 37.1015625 C-0.65556885 37.61025879 -1.18223145 38.11895508 -1.72485352 38.64306641 C-3.1164217 39.99400105 -3.1164217 39.99400105 -4 42 C-4.66 42 -5.32 42 -6 42 C-6.30550781 42.79664063 -6.30550781 42.79664063 -6.6171875 43.609375 C-8.59505609 47.02874104 -11.30326899 49.51337921 -14.125 52.25 C-14.68832031 52.80429688 -15.25164063 53.35859375 -15.83203125 53.9296875 C-17.21686028 55.29104485 -18.60783204 56.64614859 -20 58 C-23.21231298 56.60097997 -24.16265469 55.79146835 -26.4375 52.875 C-35.53741607 41.98233238 -51.27222966 36.72243041 -65 35 C-80.47932603 33.96756107 -96.93119891 34.64273842 -110 44 C-110.70640625 44.50273437 -111.4128125 45.00546875 -112.140625 45.5234375 C-118.35252242 50.42393435 -122.60923392 57.12826401 -124 65 C-125.01305229 80.07498666 -125.01305229 80.07498666 -118.22265625 93.03125 C-103.63205385 107.15995251 -82.81006474 112.81857338 -64.0078125 118.95703125 C-63.22473724 119.21376617 -62.44166199 119.4705011 -61.63485718 119.73501587 C-57.75880407 121.00452922 -53.87932615 122.25984435 -49.98974609 123.48730469 C-25.36046805 131.38704048 -0.60367695 144.93368616 12.74609375 168.01953125 C24.09076718 190.96349672 24.78755447 218.75875798 17.05859375 242.96484375 C16.70925781 243.96644531 16.35992188 244.96804688 16 246 C15.70222656 246.88816406 15.40445313 247.77632813 15.09765625 248.69140625 C6.97401557 270.97040364 -11.70674713 287.94576965 -32.77148438 297.86401367 C-39.06988929 300.68446177 -45.49101197 302.91992083 -52.125 304.8125 C-52.80401367 305.0074707 -53.48302734 305.20244141 -54.18261719 305.40332031 C-66.90316546 308.7974619 -79.67270545 309.37636999 -92.75 309.3125 C-93.5450293 309.31034485 -94.34005859 309.3081897 -95.15917969 309.30596924 C-106.67096396 309.25588024 -117.81494475 308.97444098 -129 306 C-129.80775879 305.79068848 -130.61551758 305.58137695 -131.44775391 305.36572266 C-151.1265472 300.14979039 -171.49881151 291.83764298 -186 277 C-186.66902344 276.31808594 -187.33804688 275.63617188 -188.02734375 274.93359375 C-193 269.58675743 -193 269.58675743 -193 265 C-191.0606043 262.73835715 -189.14920405 260.7299555 -187 258.6875 C-186.44699219 258.14416016 -185.89398437 257.60082031 -185.32421875 257.04101562 C-182.36245283 254.15754927 -179.32237914 251.3968661 -176.1875 248.703125 C-171.22068295 244.3949146 -166.62388437 239.73255219 -162 235.0625 C-160.69482422 233.75055664 -160.69482422 233.75055664 -159.36328125 232.41210938 C-157.23986451 230.27702551 -155.11883622 228.13962795 -153 226 C-150.11734561 228.82890998 -147.40478243 231.66682813 -144.875 234.8125 C-133.38656175 247.95626161 -115.29763254 256.48266381 -98 258 C-81.16230461 259.06534801 -63.95316228 255.22463073 -50.2578125 245.07421875 C-42.9353213 238.34715504 -38.72336766 229.09104076 -37.72265625 219.28125 C-37.36589191 209.12060156 -40.0466066 199.59401314 -47 192 C-63.74778479 177.9128562 -86.00029206 171.38899525 -106.54418945 164.99804688 C-135.91517514 155.85414394 -162.40201679 143.07128155 -177.625 115.00390625 C-187.20793008 93.98420545 -187.15694636 66.27194209 -179.17041016 44.76611328 C-175.25712204 34.93941202 -170.28624926 26.73718977 -163 19 C-162.16726562 18.07703125 -161.33453125 17.1540625 -160.4765625 16.203125 C-121.69893162 -24.96257112 -46.85704744 -26.93378874 0 0 Z " fill="#D24D00" transform="translate(2481,164)"/>
<path d="M0 0 C17.49 0 34.98 0 53 0 C53.33 48.84 53.66 97.68 54 148 C56.31 144.7 58.62 141.4 61 138 C72.43464206 125.23131637 87.94958033 116.97955703 105.16918945 115.77905273 C129.23377488 114.95789648 150.32891944 117.4284787 169 134 C169.60070313 134.50789062 170.20140625 135.01578125 170.8203125 135.5390625 C185.09311835 148.53179607 190.9515492 169.09603058 192.26817894 187.81222534 C192.36411369 191.67771147 192.37281326 195.53641909 192.34057617 199.40234375 C192.33972683 200.86281313 192.34021101 202.32328379 192.34190369 203.78375244 C192.34275311 207.69188787 192.32530138 211.59973857 192.30418181 215.50780869 C192.2852362 219.61301929 192.28365066 223.71823874 192.28010559 227.82348633 C192.27083703 235.57202906 192.24629473 243.32044252 192.21605712 251.06892872 C192.18235002 259.90103601 192.16598639 268.73314996 192.15097082 277.56530571 C192.11973957 295.71029164 192.06479372 313.85510073 192 332 C174.51 332 157.02 332 139 332 C138.95101563 323.36714844 138.90203125 314.73429687 138.8515625 305.83984375 C138.811639 299.6490344 138.77051519 293.45824205 138.72766876 287.26745319 C138.67243231 279.2635299 138.6199557 271.25962103 138.578125 263.25561523 C138.54497738 256.91480052 138.5050244 250.57406963 138.45720994 244.23334795 C138.43216864 240.88217048 138.41134037 237.53110168 138.39665604 234.17985344 C139.12696715 201.45894223 139.12696715 201.45894223 125 173 C114.71012869 164.35937635 103.87229034 163.97193918 91 165 C79.55591902 166.88546902 70.03740414 172.49781909 63.0625 181.8125 C55.1460763 194.2174223 53.70950776 208.1534015 53.68115234 222.56152344 C53.66608391 224.34905533 53.66608391 224.34905533 53.65071106 226.17269897 C53.62009338 230.06825323 53.60290376 233.96373946 53.5859375 237.859375 C53.56827313 240.57750887 53.54772763 243.29561896 53.5272522 246.01373291 C53.48070797 252.40942432 53.4438471 258.80513233 53.41057932 265.20090508 C53.36840861 273.20691302 53.31310875 281.21282381 53.2578125 289.21875 C53.15937465 303.47911295 53.08059176 317.73950027 53 332 C35.51 332 18.02 332 0 332 C0 222.44 0 112.88 0 0 Z " fill="#EE7616" transform="translate(1534,134)"/>
<path d="M0 0 C0.6755896 0.00087616 1.3511792 0.00175232 2.04724121 0.00265503 C30.82749648 0.12510797 58.34380681 8.85149864 79.9375 28.375 C80.85273438 29.19613281 81.76796875 30.01726562 82.7109375 30.86328125 C103.27491016 50.3040117 114.14138802 77.68798574 115.125 105.7578125 C115.77737883 137.11255854 106.26779604 165.59081337 84.63720703 188.72021484 C65.67490923 208.27342251 37.19318531 220.47646092 9.9375 221.375 C8.93009766 221.41367187 8.93009766 221.41367187 7.90234375 221.453125 C-24.92214966 222.56393696 -56.49048013 214.09585585 -81.15625 191.59375 C-101.13136951 172.75226013 -113.48533267 146.06444038 -114.3984375 118.5625 C-114.64021271 99.19911101 -113.34709646 81.1403646 -105.0625 63.375 C-104.78954102 62.78944336 -104.51658203 62.20388672 -104.23535156 61.60058594 C-91.81970861 35.49343839 -70.18153741 16.31823847 -42.95458984 6.62451172 C-40.79148979 5.90184965 -38.62113694 5.22038586 -36.4375 4.5625 C-35.79385498 4.3675293 -35.15020996 4.17255859 -34.48706055 3.97167969 C-23.15575038 0.77642774 -11.72652906 -0.01682744 0 0 Z M-45.0625 67.375 C-45.63613281 67.93832031 -46.20976562 68.50164062 -46.80078125 69.08203125 C-57.04109712 79.95740547 -61.13299428 95.77180564 -61.5625 110.375 C-61.04833865 127.32573854 -55.39795576 143.85437308 -43.44140625 156.1953125 C-30.41043813 168.13501728 -14.26625116 174.14150751 3.40234375 173.65234375 C21.14359289 172.26048885 34.98660831 165.21509494 46.9375 152.375 C58.03231133 139.28149104 62.69931784 122.66448896 61.7265625 105.6953125 C59.79678564 88.18167724 53.18976481 72.54648125 39.38671875 61.15234375 C32.17186958 55.91668766 24.6315162 51.54433226 15.9375 49.375 C15.23625 49.19195312 14.535 49.00890625 13.8125 48.8203125 C-8.84025408 45.31159787 -28.84620993 50.92240698 -45.0625 67.375 Z " fill="#EE7616" transform="translate(2140.0625,249.625)"/>
<path d="M0 0 C0.68031281 0.00087616 1.36062561 0.00175232 2.06155396 0.00265503 C27.84943255 0.11193371 51.17754715 8.04176148 69.95703125 26.3046875 C97.23789003 54.17097244 99.875 92.33127657 99.875 129.375 C47.075 129.375 -5.725 129.375 -60.125 129.375 C-55.15616249 148.00814067 -50.70195893 160.60601858 -34.125 170.375 C-24.28479553 175.23736961 -14.83785979 177.76676869 -3.875 177.6875 C-2.63447876 177.67904053 -2.63447876 177.67904053 -1.36889648 177.67041016 C15.42215428 177.34095001 28.27415336 171.22072872 40.875 160.375 C41.99938744 159.47839795 43.12428925 158.58244004 44.25 157.6875 C46.81111914 155.43127599 48.84318434 153.11013646 50.875 150.375 C54.43689113 150.99135454 56.56373505 152.42134145 59.40234375 154.62109375 C60.27157471 155.28915039 61.14080566 155.95720703 62.03637695 156.64550781 C62.95249756 157.36061523 63.86861816 158.07572266 64.8125 158.8125 C66.70038877 160.27491009 68.58840953 161.7371498 70.4765625 163.19921875 C71.39598633 163.91384277 72.31541016 164.6284668 73.26269531 165.36474609 C75.53690043 167.11482132 77.83036256 168.82831128 80.1484375 170.51953125 C81.0612146 171.19254272 81.0612146 171.19254272 81.99243164 171.87915039 C83.57990163 173.04591683 85.17447092 174.2030068 86.76953125 175.359375 C87.46433594 176.02453125 88.15914062 176.6896875 88.875 177.375 C88.875 183.56439732 84.48292022 186.78388234 80.3203125 190.96875 C58.19710375 212.49403419 28.65443452 221.80467035 -1.76953125 221.67749023 C-28.55288076 221.09700433 -55.47893084 212.79512085 -76.125 195.375 C-76.846875 194.80265625 -77.56875 194.2303125 -78.3125 193.640625 C-97.48721058 177.91137022 -110.2679641 151.82180199 -113.125 127.375 C-115.73007073 100.95651804 -112.23152302 76.62053139 -99.125 53.375 C-98.58101562 52.39015625 -98.03703125 51.4053125 -97.4765625 50.390625 C-83.97781912 27.60738008 -60.66816402 12.21246425 -35.6875 4.6875 C-35.02000732 4.48487549 -34.35251465 4.28225098 -33.66479492 4.07348633 C-22.52658881 0.87186982 -11.55973101 -0.01638668 0 0 Z M-46.61328125 56.046875 C-54.0127207 65.30095431 -60.125 77.34123956 -60.125 89.375 C-24.815 89.375 10.495 89.375 46.875 89.375 C44.82663717 74.01227876 42.47295005 61.75416274 30.66015625 51.44140625 C8.89305306 35.03670125 -27.69402872 34.79375143 -46.61328125 56.046875 Z " fill="#EE7616" transform="translate(1175.125,249.625)"/>
<path d="M0 0 C80.85 0 161.7 0 245 0 C245 16.83 245 33.66 245 51 C213.98 51 182.96 51 151 51 C151 136.8 151 222.6 151 311 C132.52 311 114.04 311 95 311 C95 225.2 95 139.4 95 51 C63.65 51 32.3 51 0 51 C0 34.17 0 17.34 0 0 Z " fill="#EF7716" transform="translate(843,155)"/>
<path d="M0 0 C3.65184426 2.74247282 6.84552767 5.70454566 10 9 C10.62003906 9.58910156 11.24007813 10.17820312 11.87890625 10.78515625 C24.3665496 23.4962921 30.13489332 44.15141937 30.12025452 61.49839783 C30.12231651 63.39339523 30.12231651 63.39339523 30.12442017 65.32667542 C30.12088197 66.70858789 30.11724717 68.09050012 30.11352539 69.47241211 C30.11324303 70.94140623 30.11340221 72.41040049 30.1139679 73.87939453 C30.11425396 77.85200628 30.10838803 81.82458763 30.10139394 85.79719234 C30.09512868 89.95452007 30.09455409 94.11184857 30.09336853 98.2691803 C30.09026456 106.13484021 30.08206378 114.00048617 30.07201904 121.86613995 C30.06082888 130.82380828 30.05534014 139.78147729 30.05032361 148.73915088 C30.03988037 167.15944343 30.02154652 185.57971686 30 204 C12.51 204 -4.98 204 -23 204 C-23.01981934 200.31175049 -23.03963867 196.62350098 -23.06005859 192.82348633 C-23.12711512 180.60585601 -23.20465546 168.38831303 -23.28752708 156.17078114 C-23.33749366 148.76695094 -23.38393734 141.36313093 -23.421875 133.95922852 C-23.45497872 127.50050627 -23.49490898 121.04186707 -23.54279006 114.58323687 C-23.56787392 111.16842388 -23.58970685 107.75366466 -23.60334396 104.33878517 C-23.62034868 100.51195168 -23.64941731 96.68537853 -23.68115234 92.85864258 C-23.68331253 91.74588959 -23.68547272 90.6331366 -23.68769836 89.48666382 C-23.84658529 74.38251584 -25.78418404 57.86352821 -36 46 C-43.33890986 39.05696495 -51.2024952 36.43287763 -61.1875 36.5625 C-62.01757568 36.57079834 -62.84765137 36.57909668 -63.70288086 36.58764648 C-75.21910849 36.90070249 -85.41286823 40.07806858 -94 48 C-96.70889416 51.14648476 -98.91440471 54.41433751 -101 58 C-101.39960937 58.67417969 -101.79921875 59.34835937 -102.2109375 60.04296875 C-110.14697922 75.46753104 -108.47150749 95.15276254 -108.51171875 111.91015625 C-108.52859486 114.5763062 -108.5466079 117.24242458 -108.56611633 119.90855408 C-108.60942397 126.16242177 -108.63818842 132.41626416 -108.66143972 138.6702351 C-108.6913692 146.50484829 -108.74122546 154.3393203 -108.79101562 162.17382812 C-108.87953429 176.11584176 -108.9384309 190.05778359 -109 204 C-126.49 204 -143.98 204 -162 204 C-162 134.37 -162 64.74 -162 -7 C-145.17 -7 -128.34 -7 -111 -7 C-110.67 2.9 -110.34 12.8 -110 23 C-107.69 19.7 -105.38 16.4 -103 13 C-79.06395226 -18.04871674 -31.83818809 -20.16566183 0 0 Z " fill="#EE7616" transform="translate(1947,262)"/>
<path d="M0 0 C17.49 0 34.98 0 53 0 C53.04898438 8.30929687 53.09796875 16.61859375 53.1484375 25.1796875 C53.18837811 31.14994752 53.22950547 37.12019024 53.27233124 43.09042931 C53.32749598 50.80261309 53.37996323 58.51478236 53.421875 66.22705078 C53.45867233 72.99635471 53.50545641 79.76553356 53.55806351 86.53473282 C53.57645303 89.10438043 53.5916165 91.67405343 53.60334396 94.24374008 C52.85540261 126.35323236 52.85540261 126.35323236 64.828125 155.2578125 C66 157 66 157 66 159 C66.7734375 159.37125 66.7734375 159.37125 67.5625 159.75 C69.52155843 160.75464535 71.42775359 161.8620399 73.3125 163 C83.88562586 168.99069288 96.53636059 167.84539021 108 165 C120.6998712 160.30321065 127.35278072 153.09210962 133.45703125 141.24609375 C139.47151296 126.16403153 138.4743068 109.77223182 138.51171875 93.84765625 C138.52697291 91.13380336 138.54660002 88.41998665 138.56611633 85.7061615 C138.60948666 79.33181253 138.63821324 72.95748854 138.66143972 66.58303779 C138.69132952 58.60019938 138.74119255 50.61750024 138.79101562 42.63476562 C138.87962822 28.42321999 138.93845892 14.21174581 139 0 C156.49 0 173.98 0 192 0 C192 69.63 192 139.26 192 211 C175.5 211 159 211 142 211 C140.14034925 209.14034925 140.75912451 206.05110881 140.68359375 203.55859375 C140.62075195 201.60083008 140.62075195 201.60083008 140.55664062 199.60351562 C140.51682392 198.2148467 140.47711175 196.82617478 140.4375 195.4375 C140.39432011 194.04490817 140.350706 192.65232972 140.30664062 191.25976562 C140.20014124 187.83995199 140.09813077 184.42006237 140 181 C139.24033936 182.07362793 139.24033936 182.07362793 138.46533203 183.16894531 C127.07363432 199.08259946 114.86670113 210.9263862 95 215 C71.61909556 218.50590119 47.72713731 215.80582964 28 202 C11.41429917 189.59276785 3.66835947 170.67372564 0.47096252 150.69421387 C-0.29613509 144.38425513 -0.13102196 138.0352326 -0.11352539 131.68945312 C-0.11324293 130.24986778 -0.11340239 128.81028229 -0.1139679 127.37069702 C-0.11425359 123.48285223 -0.10839379 119.59503859 -0.10139394 115.707201 C-0.09512237 111.6366301 -0.0945536 107.56605839 -0.09336853 103.4954834 C-0.0902664 95.79631168 -0.08206814 88.09715424 -0.07201904 80.3979888 C-0.06082311 71.62892735 -0.05533869 62.8598652 -0.05032361 54.09079838 C-0.03988455 36.06052252 -0.02155303 18.03026623 0 0 Z " fill="#D24D00" transform="translate(2830,255)"/>
<path d="M0 0 C5.78451133 4.73830449 11.74070729 9.81810989 16 16 C14.64571539 19.10412761 13.22865747 20.91475724 10.625 23.0625 C7.00278168 26.12492094 3.48388306 29.28200374 0 32.5 C-13.60255048 45.00159405 -13.60255048 45.00159405 -20 49 C-20.52207031 48.35933594 -21.04414063 47.71867187 -21.58203125 47.05859375 C-30.92950004 36.07409014 -41.06486214 30.01214509 -55.375 28.1875 C-66.19447402 27.45397634 -75.69836148 30.16422003 -84.875 35.75 C-88.44643912 39.53152378 -89.89978682 43.36639759 -90.09765625 48.56640625 C-89.86380111 52.39364522 -89.31464426 55.35640947 -87.625 58.8125 C-74.77935715 69.51720237 -53.92641943 71.85152398 -38.03588867 75.32568359 C-19.82243561 79.40993429 -4.41377225 85.65609115 9 99 C9.99 99.93779297 9.99 99.93779297 11 100.89453125 C20.2989372 110.41391739 22.78035052 124.1129703 23 137 C22.55741351 154.5095995 17.60466587 169.1155003 5.5 182.125 C-15.68930744 202.17065666 -46.39525306 206.99343285 -74.54296875 206.28515625 C-103.41013429 205.05028019 -129.2834841 196.16724119 -149.92578125 175.375 C-151 174 -151 174 -151 172 C-149.53125 170.5546875 -149.53125 170.5546875 -147.5 168.875 C-144.53322639 166.35742098 -141.72425751 163.77831024 -139 161 C-135.78663622 157.73632915 -132.43503516 154.71941372 -128.95703125 151.7421875 C-126.31289491 149.38832561 -123.87588523 146.85704135 -121.4453125 144.28515625 C-120 143 -120 143 -118 143 C-118 142.34 -118 141.68 -118 141 C-116.68 140.67 -115.36 140.34 -114 140 C-113.01 141.98 -113.01 141.98 -112 144 C-111.34 144 -110.68 144 -110 144 C-108.88018941 145.11981059 -107.7637637 146.24312365 -106.66015625 147.37890625 C-95.05511818 158.7108846 -82.5821855 164.90787103 -66.265625 165.02734375 C-55.11753539 164.58369529 -44.75663446 162.83903451 -36.55859375 154.77734375 C-32.36654837 149.99694113 -31.41590957 145.74089716 -31.66796875 139.5234375 C-32.34878172 134.34925891 -33.92572277 130.74437231 -37.96484375 127.34765625 C-51.10813457 118.75312498 -67.92777998 116.24268086 -83.02978516 113.02319336 C-103.88026449 108.55061814 -123.93844128 102.188016 -137 84 C-142.66265591 74.16339624 -144.38080464 64.41092807 -144.3125 53.1875 C-144.30686035 52.21699707 -144.3012207 51.24649414 -144.29541016 50.24658203 C-143.98743971 32.04583333 -136.77083331 17.50767159 -123.76171875 4.81640625 C-92.71674155 -21.9501035 -33.32569272 -23.50135556 0 0 Z " fill="#D24D00" transform="translate(3383,265)"/>
<path d="M0 0 C-0.15339844 0.92941406 -0.30679687 1.85882813 -0.46484375 2.81640625 C-1.18193798 7.83606589 -1.35145498 12.87587934 -1.5625 17.9375 C-1.60568359 18.90751953 -1.64886719 19.87753906 -1.69335938 20.87695312 C-1.79862093 23.25118601 -1.90075707 25.62550921 -2 28 C-7.47074145 27.48900788 -12.89241612 26.91890164 -18.3125 26 C-60.91030569 19.33943295 -104.98006355 28.16428768 -143 48 C-143.64114746 48.32967773 -144.28229492 48.65935547 -144.94287109 48.99902344 C-162.9693882 58.37148021 -179.00346661 72.45127727 -192 88 C-191.360625 88.639375 -190.72125 89.27875 -190.0625 89.9375 C-189.60359375 90.4015625 -189.1446875 90.865625 -188.671875 91.34375 C-187.47329471 92.53112861 -186.25160815 93.6953562 -185.015625 94.84375 C-166.7884216 112.16605678 -155.39434562 136.28756499 -154.64477539 161.55444336 C-154.5322447 174.40378102 -156.00991746 188.05771509 -161 200 C-161.28617188 200.70769531 -161.57234375 201.41539062 -161.8671875 202.14453125 C-166.25359587 212.49427992 -171.70640453 221.45036461 -179 230 C-179.56589844 230.69996094 -180.13179687 231.39992188 -180.71484375 232.12109375 C-187.72910221 240.58771632 -196.43380503 246.71063469 -206 252 C-206.74378906 252.43054688 -207.48757813 252.86109375 -208.25390625 253.3046875 C-213.49060397 256.15784599 -218.87150336 258.04276302 -224.5625 259.75 C-225.25867432 259.96084229 -225.95484863 260.17168457 -226.67211914 260.38891602 C-250.97428824 267.34012869 -277.34687768 263.10156113 -299.5 251.8125 C-321.87743061 239.34160381 -338.84668277 219.93608864 -346.0690918 195.2121582 C-353.08543357 170.48515094 -352.22568476 143.86254905 -339.89257812 120.94189453 C-334.86634419 112.09233897 -329.18812617 104.2455164 -322 97 C-320.700625 95.63875 -320.700625 95.63875 -319.375 94.25 C-318.59125 93.5075 -317.8075 92.765 -317 92 C-316.53851563 91.55527344 -316.07703125 91.11054688 -315.6015625 90.65234375 C-300.15486605 76.52426773 -278.77456364 68.61902752 -258 68 C-257.33629395 67.96890137 -256.67258789 67.93780273 -255.98876953 67.90576172 C-244.56520476 67.39479535 -234.96850831 68.78225773 -224 72 C-221.33835332 72.68893779 -218.67046017 73.34564883 -216 74 C-215.77699219 73.45988281 -215.55398438 72.91976562 -215.32421875 72.36328125 C-213.57462979 69.24085848 -211.24777008 66.77847371 -208.8125 64.1875 C-208.32144775 63.65995117 -207.83039551 63.13240234 -207.32446289 62.58886719 C-205.88927124 61.05316269 -204.44633917 59.52520228 -203 58 C-202.27039063 57.22785156 -201.54078125 56.45570313 -200.7890625 55.66015625 C-197.37711221 52.14023285 -197.37711221 52.14023285 -196 51 C-195.34 51 -194.68 51 -194 51 C-194 50.34 -194 49.68 -194 49 C-175.76556017 32 -175.76556017 32 -170 32 C-170 31.34 -170 30.68 -170 30 C-167.8190238 28.50019704 -165.65795375 27.14165307 -163.375 25.8125 C-162.68913818 25.4103125 -162.00327637 25.008125 -161.29663086 24.59375 C-117.58409648 -0.76726914 -49.71193693 -18.09136945 0 0 Z M-306.625 117.625 C-320.93479842 134.13825411 -325.05836667 152.71087049 -324 174 C-322.24375814 191.369232 -312.77123233 208.13561757 -299.390625 219.27734375 C-281.98542252 231.81932789 -263.63150161 237.2062552 -242.28515625 234.53515625 C-225.0785375 231.26415674 -208.22512057 222.67082517 -198 208 C-186.17172982 189.24567048 -180.57830421 170.37818577 -185.5625 148.3125 C-190.09040889 130.18634525 -200.92288892 114.5615994 -216.99365234 104.87207031 C-246.95346062 87.41897395 -282.57805784 92.55041074 -306.625 117.625 Z " fill="#FEA447" transform="translate(473,115)"/>
<path d="M0 0 C0.86625 0.37898438 1.7325 0.75796875 2.625 1.1484375 C13.45627752 6.19175109 22.3442023 13.88871018 31 22 C26.75789864 27.06711299 22.32282911 31.81223371 17.6328125 36.46484375 C16.95322479 37.14301651 16.27363708 37.82118927 15.57345581 38.51991272 C13.42632998 40.66149141 11.27573373 42.79954529 9.125 44.9375 C7.65862227 46.39885589 6.1924742 47.86044226 4.7265625 49.32226562 C1.15369 52.88417935 -2.42229684 56.44293865 -6 60 C-6.47861984 59.58939835 -6.95723969 59.17879669 -7.45036316 58.75575256 C-8.0792897 58.21639572 -8.70821625 57.67703888 -9.35620117 57.12133789 C-9.97919601 56.58698624 -10.60219086 56.05263458 -11.24406433 55.50209045 C-21.75844233 46.50771378 -32.4193112 39.58227268 -46.625 39.6875 C-47.81923584 39.69595947 -47.81923584 39.69595947 -49.03759766 39.70458984 C-64.91121843 40.02867226 -78.09700975 46.04696717 -89.3046875 57.1484375 C-96.62527859 64.89341068 -100.70775034 72.89176471 -104 83 C-104.2475 83.72445312 -104.495 84.44890625 -104.75 85.1953125 C-109.14109417 100.74710435 -105.92853202 118.72568051 -98.8125 132.875 C-90.62056497 146.92825585 -78.54569797 156.20025858 -63.0078125 160.90625 C-47.15032361 165.01322554 -33.15212589 163.22703495 -18.69921875 155.61328125 C-13.39802367 152.44483904 -9.33117851 148.34984738 -5 144 C-1.4976373 147.45864389 1.99710609 150.92455357 5.47265625 154.41015625 C6.06312744 155.0019165 6.65359863 155.59367676 7.26196289 156.20336914 C9.68890127 158.71212593 11.97652135 161.32703076 14.24829102 163.97631836 C15.9686091 165.96373531 17.73324314 167.89550197 19.52734375 169.81640625 C20.48833984 170.84616577 20.48833984 170.84616577 21.46875 171.89672852 C24.31069112 174.93285484 27.1528664 177.9687411 30 181 C24.3292118 192.99285641 6.68764133 200.10082943 -5.0703125 204.640625 C-37.69418411 215.94660138 -71.66480149 214.17886885 -102.77929688 199.28100586 C-126.9890562 187.12322999 -146.20472749 165.50566796 -154.76220703 139.70166016 C-163.83161942 110.34399016 -163.11472821 76.68785243 -149 49 C-135.24195169 23.05660008 -112.60222858 4.7277876 -84.63696289 -4.10131836 C-82.43099264 -4.75986988 -80.21916679 -5.38753447 -78 -6 C-76.18242188 -6.51046875 -76.18242188 -6.51046875 -74.328125 -7.03125 C-50.1187962 -12.64199573 -22.63699889 -10.24953005 0 0 Z " fill="#EE7616" transform="translate(1473,259)"/>
<path d="M0 0 C0.92876953 -0.00773438 1.85753906 -0.01546875 2.81445312 -0.0234375 C4.19213867 -0.01957031 4.19213867 -0.01957031 5.59765625 -0.015625 C6.40855713 -0.01336914 7.21945801 -0.01111328 8.05493164 -0.00878906 C12.07056546 0.3517235 16.00172438 1.37538319 19.9375 2.25 C19.9375 19.41 19.9375 36.57 19.9375 54.25 C15.36437979 53.67835997 11.23414375 53.14718152 6.8125 52.1875 C-8.40428068 49.4208126 -24.25276657 50.90660583 -37.4140625 59.375 C-50.63479802 68.73481276 -57.89409595 81.33511075 -60.65571213 97.2433567 C-61.32787725 102.2114516 -61.37099857 107.14014266 -61.38134766 112.1472168 C-61.39641609 113.84674751 -61.39641609 113.84674751 -61.41178894 115.58061218 C-61.44242269 119.2868097 -61.45960077 122.99293565 -61.4765625 126.69921875 C-61.49529008 129.28425199 -61.51486467 131.86927921 -61.5352478 134.45429993 C-61.58119159 140.5383709 -61.61865948 146.62243873 -61.65192068 152.70659047 C-61.69408098 160.32203455 -61.74938442 167.93737635 -61.8046875 175.55273438 C-61.90314486 189.11843305 -61.98191503 202.68415727 -62.0625 216.25 C-79.5525 216.25 -97.0425 216.25 -115.0625 216.25 C-115.0625 146.62 -115.0625 76.99 -115.0625 5.25 C-97.5725 5.25 -80.0825 5.25 -62.0625 5.25 C-61.7325 15.48 -61.4025 25.71 -61.0625 36.25 C-59.0825 32.95 -57.1025 29.65 -55.0625 26.25 C-41.26535551 8.4812637 -22.38474722 -0.18718952 0 0 Z " fill="#D24D00" transform="translate(3196.0625,249.75)"/>
<path d="M0 0 C18.4746441 8.46166905 33.13454125 38.71600406 40.01318359 56.42529297 C55.25194246 98.09145304 56.37001176 141.45275033 38.09765625 182.4609375 C36.24827726 186.3836915 34.20910174 190.17922778 32.046875 193.9375 C31.66805176 194.5965332 31.28922852 195.25556641 30.89892578 195.93457031 C8.58524664 234.16308574 -24.79545032 259.78626112 -67.515625 271.25 C-76.93205979 273.68496005 -86.26392431 275.18317297 -95.953125 275.9375 C-99.57960887 270.61110182 -102.4465095 265.06008776 -105.203125 259.25 C-105.55632812 258.51338135 -105.90953125 257.7767627 -106.2734375 257.01782227 C-106.60601562 256.30682373 -106.93859375 255.5958252 -107.28125 254.86328125 C-107.72839355 253.91062378 -107.72839355 253.91062378 -108.18457031 252.9387207 C-109.06964415 250.63409863 -109.52725736 248.36520841 -109.953125 245.9375 C-109.24929687 245.86756836 -108.54546875 245.79763672 -107.8203125 245.72558594 C-68.67760835 241.75255037 -34.39340341 230.27065466 -8.46777344 199.15478516 C-5.37626148 195.24233203 -2.60498135 191.15765849 0.046875 186.9375 C0.43568848 186.32326172 0.82450195 185.70902344 1.22509766 185.07617188 C13.57021837 165.23852425 20.22041375 143.29675851 20.28710938 119.93383789 C20.2967373 117.90402997 20.32779023 115.8752711 20.359375 113.84570312 C20.43190842 104.85046359 19.26045738 96.64872211 17.046875 87.9375 C16.73780974 86.57592221 16.43013426 85.21402663 16.125 83.8515625 C9.6390054 58.09114997 -4.06528755 38.1910444 -22.953125 19.9375 C-23.95532038 18.93970021 -24.95632498 17.94068977 -25.953125 16.9375 C-4.8459303 -0.15506977 -4.8459303 -0.15506977 0 0 Z " fill="#D24E00" transform="translate(327.953125,164.0625)"/>
<path d="M0 0 C1.84765625 0.734375 1.84765625 0.734375 3.84765625 1.734375 C3.84765625 2.394375 3.84765625 3.054375 3.84765625 3.734375 C1.93834845 5.17015018 0.03173971 6.49240329 -1.96484375 7.796875 C-7.61595876 11.55651395 -12.67696122 15.61794631 -17.71484375 20.1796875 C-20.15234375 21.734375 -20.15234375 21.734375 -22.96484375 21.4765625 C-23.68671875 21.23164063 -24.40859375 20.98671875 -25.15234375 20.734375 C-25.15234375 19.744375 -25.15234375 18.754375 -25.15234375 17.734375 C-23.23903956 15.8510599 -21.35367541 14.17033211 -19.27734375 12.484375 C-18.68961182 12.00000977 -18.10187988 11.51564453 -17.49633789 11.01660156 C-3.4714373 -0.42841694 -3.4714373 -0.42841694 0 0 Z " fill="#D35002" transform="translate(299.15234375,143.265625)"/>
</svg>
