<svg width="250" height="50" viewBox="0 0 250 50" fill="none" xmlns="http://www.w3.org/2000/svg">
<g clip-path="url(#clip0_981_4339)">
<g clip-path="url(#clip1_981_4339)">
<g clip-path="url(#clip2_981_4339)">
<path d="M68.8729 15.078H61.9033V11.4166H79.8897V15.078H72.9201V34.1601H68.8729V15.078ZM81.8187 27.7972C81.854 28.3138 81.9915 28.8182 82.223 29.2813C82.4546 29.7445 82.7757 30.1571 83.1678 30.4953C83.9524 31.1416 84.9439 31.483 85.9601 31.4569C86.8077 31.4862 87.6469 31.2806 88.3849 30.8628C89.0384 30.4664 89.6195 29.9614 90.1032 29.3696L92.8655 31.4569C92.0722 32.4876 91.0346 33.3044 89.8465 33.8335C88.7397 34.3031 87.5491 34.5435 86.3467 34.5401C85.2286 34.5469 84.1185 34.351 83.0703 33.9618C82.0806 33.6 81.1738 33.0429 80.4038 32.3235C79.6435 31.6014 79.0372 30.7329 78.6214 29.7704C78.1716 28.7207 77.9474 27.5883 77.9631 26.4464C77.9474 25.3046 78.1716 24.1721 78.6214 23.1225C79.0372 22.1599 79.6435 21.2914 80.4038 20.5693C81.1738 19.85 82.0806 19.2928 83.0703 18.9311C84.1185 18.5419 85.2286 18.3459 86.3467 18.3528C87.3543 18.3407 88.3539 18.532 89.2857 18.9152C90.1588 19.279 90.9389 19.8347 91.5681 20.541C92.2323 21.3047 92.7348 22.195 93.0455 23.1583C93.417 24.3156 93.5961 25.5261 93.5754 26.7414V27.8013L81.8187 27.7972ZM89.7199 24.9065C89.7358 24.4107 89.65 23.9169 89.4677 23.4556C89.2854 22.9942 89.0105 22.5751 88.6599 22.2242C87.8731 21.5339 86.8458 21.1818 85.8009 21.2443C85.2992 21.2173 84.7972 21.2915 84.3248 21.4626C83.8524 21.6337 83.4192 21.8981 83.0511 22.24C82.3483 22.9628 81.9123 23.9031 81.8145 24.9065H89.7199ZM107.706 23.365C107.292 22.9225 106.815 22.5437 106.29 22.2409C105.831 21.9722 105.311 21.8285 104.78 21.8242C104.128 21.8131 103.481 21.9448 102.885 22.21C102.345 22.4546 101.859 22.8039 101.456 23.2375C101.06 23.6649 100.755 24.1672 100.557 24.7149C100.354 25.2704 100.25 25.8575 100.252 26.4489C100.25 27.0404 100.354 27.6275 100.557 28.183C100.755 28.7306 101.06 29.233 101.456 29.6604C101.859 30.094 102.345 30.4432 102.885 30.6878C103.481 30.9531 104.128 31.0848 104.78 31.0736C105.356 31.078 105.926 30.9518 106.446 30.7045C106.964 30.455 107.415 30.0863 107.763 29.6287L110.333 32.391C109.937 32.7839 109.488 33.1192 108.999 33.3868C108.513 33.6578 108.002 33.8835 107.474 34.0609C106.992 34.2241 106.498 34.3476 105.996 34.4301C105.593 34.499 105.185 34.5366 104.776 34.5426C103.657 34.5494 102.547 34.3535 101.499 33.9643C100.509 33.6025 99.6026 33.0454 98.8326 32.326C98.0723 31.6039 97.466 30.7354 97.0502 29.7729C96.6004 28.7232 96.3762 27.5908 96.3919 26.4489C96.3762 25.3071 96.6004 24.1746 97.0502 23.125C97.466 22.1624 98.0723 21.2939 98.8326 20.5718C99.6026 19.8525 100.509 19.2953 101.499 18.9336C102.547 18.5444 103.657 18.3484 104.776 18.3553C105.792 18.3613 106.798 18.5519 107.746 18.9177C108.747 19.2963 109.644 19.9072 110.364 20.7001L107.706 23.365ZM116.506 20.8918H116.566C116.931 20.1772 117.48 19.573 118.156 19.1419C119.032 18.5848 120.058 18.3102 121.095 18.3553C121.995 18.3294 122.889 18.5051 123.713 18.8694C124.39 19.1815 124.988 19.6426 125.463 20.2185C125.917 20.7851 126.245 21.4422 126.426 22.1459C126.621 22.8904 126.718 23.657 126.715 24.4266V34.1584H122.865V26.3531C122.865 25.9248 122.844 25.4484 122.801 24.924C122.764 24.4178 122.651 23.9199 122.468 23.4466C122.291 22.9929 121.997 22.594 121.617 22.29C121.162 21.9575 120.606 21.793 120.043 21.8242C119.485 21.8067 118.93 21.9164 118.42 22.145C117.995 22.348 117.622 22.6445 117.328 23.0125C117.036 23.382 116.823 23.8073 116.701 24.2624C116.572 24.7441 116.507 25.241 116.509 25.7398V34.1559H112.65V9.875H116.504L116.506 20.8918ZM131.089 18.7394H134.75V21.2126H134.815C135.199 20.4175 135.771 19.7283 136.482 19.2052C137.378 18.5944 138.45 18.2954 139.533 18.3544C140.433 18.3286 141.327 18.5042 142.151 18.8686C142.828 19.1806 143.426 19.6418 143.901 20.2177C144.355 20.7843 144.683 21.4414 144.864 22.145C145.059 22.8895 145.156 23.6562 145.153 24.4257V34.1576H141.302V26.3523C141.302 25.9239 141.28 25.4476 141.237 24.9232C141.2 24.4169 141.088 23.9191 140.904 23.4458C140.727 22.9921 140.434 22.5932 140.053 22.2892C139.598 21.9567 139.042 21.7921 138.479 21.8234C137.921 21.8059 137.366 21.9156 136.857 22.1442C136.432 22.3471 136.058 22.6437 135.764 23.0117C135.472 23.3811 135.259 23.8065 135.138 24.2616C135.008 24.7433 134.943 25.2401 134.945 25.739V34.1551H131.088L131.089 18.7394ZM148.754 26.4481C148.739 25.3062 148.963 24.1738 149.413 23.1241C149.828 22.1616 150.435 21.2931 151.195 20.571C151.965 19.8516 152.872 19.2945 153.862 18.9327C154.91 18.5435 156.02 18.3476 157.138 18.3544C158.256 18.3476 159.366 18.5435 160.414 18.9327C161.404 19.2945 162.311 19.8516 163.081 20.571C163.841 21.2931 164.447 22.1616 164.863 23.1241C165.313 24.1738 165.537 25.3062 165.522 26.4481C165.537 27.59 165.313 28.7224 164.863 29.772C164.447 30.7346 163.841 31.6031 163.081 32.3252C162.311 33.0445 161.404 33.6017 160.414 33.9634C159.366 34.3527 158.256 34.5486 157.138 34.5417C156.02 34.5486 154.91 34.3527 153.862 33.9634C152.872 33.6017 151.965 33.0445 151.195 32.3252C150.435 31.6031 149.828 30.7346 149.413 29.772C148.963 28.7224 148.739 27.59 148.754 26.4481ZM152.608 26.4481C152.607 27.0396 152.71 27.6266 152.913 28.1821C153.111 28.7298 153.417 29.2322 153.812 29.6596C154.216 30.0932 154.702 30.4424 155.241 30.687C155.837 30.9522 156.484 31.0839 157.136 31.0728C157.789 31.0839 158.435 30.9522 159.031 30.687C159.571 30.4424 160.057 30.0932 160.46 29.6596C160.856 29.2322 161.162 28.7298 161.359 28.1821C161.563 27.6266 161.666 27.0396 161.664 26.4481C161.666 25.8566 161.563 25.2696 161.359 24.714C161.162 24.1664 160.856 23.664 160.46 23.2366C160.057 22.803 159.571 22.4538 159.031 22.2092C158.435 21.9439 157.789 21.8123 157.136 21.8234C156.484 21.8123 155.837 21.9439 155.241 22.2092C154.702 22.4538 154.216 22.803 153.812 23.2366C153.417 23.664 153.111 24.1664 152.913 24.714C152.71 25.2695 152.607 25.8566 152.608 26.4481Z" fill="#EF7717"/>
<path d="M180.615 16.297C180.192 15.6802 179.593 15.2047 178.897 14.9321C178.177 14.6427 177.408 14.4955 176.633 14.4988C176.173 14.4975 175.715 14.5515 175.268 14.6596C174.845 14.76 174.442 14.934 174.08 15.1737C173.728 15.4081 173.436 15.7221 173.229 16.0904C173.006 16.4988 172.896 16.9587 172.908 17.4236C172.889 17.7611 172.951 18.0984 173.091 18.4061C173.231 18.7139 173.444 18.983 173.711 19.1902C174.321 19.637 174.992 19.9939 175.703 20.2501C176.495 20.5501 177.362 20.8392 178.304 21.1175C179.22 21.3841 180.095 21.7731 180.906 22.2741C181.705 22.7734 182.385 23.4422 182.897 24.2332C183.476 25.2128 183.756 26.3405 183.701 27.4771C183.726 28.5801 183.495 29.674 183.027 30.6727C182.6 31.5543 181.979 32.3282 181.212 32.9368C180.423 33.5512 179.523 34.0091 178.562 34.2858C177.529 34.5894 176.458 34.741 175.382 34.7358C173.99 34.7402 172.608 34.5011 171.299 34.0292C169.983 33.5515 168.819 32.731 167.927 31.6527L170.978 28.6979C171.463 29.4401 172.133 30.0432 172.921 30.4478C173.709 30.8615 174.585 31.0767 175.475 31.0744C175.953 31.0739 176.43 31.0091 176.891 30.8819C177.348 30.7599 177.782 30.5646 178.176 30.3036C178.557 30.0517 178.875 29.7166 179.108 29.3237C179.348 28.9096 179.47 28.4375 179.461 27.9588C179.483 27.5975 179.422 27.2362 179.282 26.9021C179.143 26.5681 178.929 26.2703 178.658 26.0314C178.06 25.5458 177.387 25.1608 176.666 24.8915C175.874 24.5809 175.007 24.2865 174.065 24.0082C173.152 23.7427 172.277 23.3595 171.463 22.8683C170.665 22.3808 169.985 21.7226 169.472 20.9409C168.891 19.9677 168.612 18.8445 168.668 17.7128C168.64 16.6502 168.889 15.5985 169.391 14.6613C169.859 13.8198 170.506 13.0909 171.286 12.5256C172.096 11.9443 173.005 11.5144 173.968 11.2565C174.972 10.9788 176.009 10.8386 177.051 10.8399C178.234 10.8373 179.41 11.0215 180.536 11.3857C181.668 11.7545 182.704 12.3688 183.571 13.1847L180.615 16.297ZM187.553 18.7377H191.214V21.05H191.279C191.794 20.1456 192.581 19.4263 193.528 18.9943C194.487 18.5625 195.528 18.3433 196.58 18.3519C197.672 18.3349 198.756 18.5484 199.76 18.9785C200.674 19.3762 201.495 19.9616 202.169 20.6967C202.842 21.4412 203.356 22.3158 203.679 23.2666C204.028 24.29 204.201 25.3651 204.193 26.4464C204.202 27.5303 204.017 28.6072 203.647 29.6262C203.306 30.572 202.789 31.4441 202.121 32.196C201.463 32.9276 200.659 33.5129 199.761 33.9142C198.811 34.3379 197.781 34.5516 196.742 34.5408C196.092 34.5503 195.444 34.4747 194.814 34.3159C194.3 34.1828 193.804 33.9887 193.337 33.7376C192.945 33.5278 192.579 33.2745 192.244 32.9826C191.973 32.7453 191.725 32.4818 191.505 32.196H191.409V41.4787H187.555L187.553 18.7377ZM200.336 26.4464C200.338 25.8549 200.234 25.2678 200.031 24.7123C199.833 24.1647 199.528 23.6623 199.132 23.2349C198.728 22.8013 198.243 22.4521 197.703 22.2075C197.107 21.9422 196.46 21.8106 195.808 21.8217C195.156 21.8106 194.509 21.9422 193.913 22.2075C193.374 22.4521 192.888 22.8013 192.484 23.2349C192.089 23.6623 191.783 24.1647 191.585 24.7123C191.382 25.2678 191.279 25.8549 191.28 26.4464C191.279 27.0378 191.382 27.6249 191.585 28.1804C191.783 28.7281 192.089 29.2304 192.484 29.6578C192.888 30.0914 193.374 30.4406 193.913 30.6853C194.509 30.9505 195.156 31.0821 195.808 31.0711C196.46 31.0821 197.107 30.9505 197.703 30.6853C198.243 30.4407 198.728 30.0914 199.132 29.6578C199.528 29.2305 199.833 28.7281 200.031 28.1804C200.234 27.6249 200.338 27.0378 200.336 26.4464ZM221.856 34.155H218.194V31.6818H218.13C217.747 32.477 217.175 33.1662 216.464 33.6892C215.567 34.3001 214.495 34.599 213.412 34.54C212.514 34.5648 211.621 34.3942 210.795 34.04C210.113 33.7353 209.513 33.2729 209.045 32.6909C208.592 32.1172 208.264 31.4554 208.082 30.7477C207.887 30.0033 207.79 29.2366 207.792 28.4671V18.7352H211.646V26.5405C211.646 26.9688 211.668 27.4452 211.711 27.9696C211.748 28.4758 211.86 28.9737 212.044 29.447C212.218 29.8974 212.505 30.2956 212.877 30.6036C213.336 30.9406 213.899 31.1055 214.467 31.0694C215.025 31.0869 215.58 30.9772 216.089 30.7486C216.514 30.5456 216.887 30.249 217.181 29.8811C217.473 29.5117 217.686 29.0863 217.808 28.6312C217.937 28.1496 218.002 27.6527 218 27.1538V18.7377H221.854L221.856 34.155ZM226.224 18.7394H230.078V21.18H230.142C230.536 20.3201 231.173 19.5945 231.975 19.0927C232.796 18.592 233.743 18.3356 234.705 18.3535C234.937 18.3532 235.168 18.3746 235.396 18.4177C235.618 18.4605 235.848 18.5141 236.087 18.5785V22.3041C235.765 22.2186 235.45 22.1488 235.139 22.095C234.836 22.0411 234.53 22.0132 234.222 22.0117C233.468 21.9777 232.719 22.1505 232.056 22.5116C231.562 22.7969 231.135 23.1858 230.806 23.6515C230.535 24.0399 230.338 24.4758 230.228 24.9364C230.147 25.2519 230.099 25.5746 230.083 25.8997V34.1542H226.23L226.224 18.7394ZM246.941 23.0116C246.611 22.5158 246.162 22.1114 245.634 21.8362C245.106 21.561 244.517 21.4238 243.922 21.4375C243.395 21.4409 242.876 21.5733 242.412 21.8233C242.179 21.9355 241.985 22.1141 241.853 22.3365C241.722 22.5589 241.659 22.8152 241.673 23.0732C241.663 23.2854 241.715 23.496 241.823 23.6787C241.932 23.8614 242.091 24.0081 242.283 24.1007C242.772 24.3446 243.29 24.5279 243.824 24.6465C244.445 24.7965 245.114 24.9517 245.832 25.1123C246.531 25.2664 247.207 25.5151 247.839 25.8514C248.454 26.1778 248.982 26.6457 249.381 27.2163C249.824 27.9269 250.037 28.7568 249.991 29.5928C250.018 30.4099 249.812 31.2178 249.396 31.9218C249.009 32.5444 248.481 33.0671 247.855 33.4476C247.195 33.8435 246.473 34.1252 245.719 34.2809C244.938 34.4508 244.142 34.5368 243.343 34.5375C242.219 34.5493 241.101 34.3756 240.035 34.0234C238.986 33.6521 238.055 33.0091 237.336 32.1602L239.906 29.7512C240.367 30.2808 240.903 30.7406 241.496 31.1161C242.123 31.4851 242.841 31.6688 243.568 31.646C243.859 31.6445 244.15 31.6121 244.435 31.5494C244.728 31.4874 245.009 31.3791 245.268 31.2285C245.515 31.088 245.729 30.8962 245.895 30.6661C246.057 30.4363 246.141 30.1606 246.136 29.8795C246.15 29.6449 246.101 29.4106 245.994 29.2015C245.887 28.9924 245.725 28.8161 245.526 28.6912C245.047 28.4045 244.527 28.1931 243.984 28.0646C243.363 27.904 242.694 27.7541 241.977 27.6146C241.28 27.4825 240.605 27.2557 239.97 26.9405C239.358 26.6379 238.829 26.1916 238.428 25.6398C237.985 24.9532 237.771 24.1433 237.818 23.3274C237.799 22.55 237.981 21.7809 238.348 21.095C238.69 20.4766 239.168 19.944 239.745 19.5376C240.349 19.1193 241.024 18.8146 241.737 18.6385C242.482 18.4464 243.248 18.3492 244.018 18.3494C245.057 18.3515 246.089 18.5307 247.069 18.8794C248.052 19.2153 248.905 19.8498 249.51 20.6942L246.941 23.0116Z" fill="#D24E00"/>
<path d="M43.6133 7.25252C43.6045 7.24974 43.5965 7.24488 43.59 7.23836C43.5834 7.23183 43.5754 7.22697 43.5666 7.22419L43.525 7.19169C41.2533 5.54509 38.6735 4.37238 35.9393 3.74336C33.205 3.11434 30.3722 3.04186 27.6093 3.53026C24.8697 3.92675 22.2427 4.89004 19.8962 6.35864C17.5497 7.82724 15.5351 9.7689 13.981 12.0597C12.7745 13.767 11.8307 15.6455 11.1812 17.6327C10.1441 20.9176 9.96171 24.4128 10.6513 27.7879C11.7367 33.3331 14.9318 38.2407 19.5637 41.477C24.1956 44.7132 29.9027 46.0256 35.483 45.1376C38.8656 44.6296 42.0646 43.2734 44.7815 41.1953C44.7996 41.1863 44.8166 41.1754 44.8324 41.1628C44.854 41.1473 44.8771 41.132 44.9015 41.117C46.517 39.8268 47.9338 38.3059 49.1063 36.6031C50.7239 34.3577 51.8551 31.7995 52.4278 29.0919C53.0004 26.3844 53.0018 23.5872 52.4319 20.8791C51.9456 18.1344 50.9152 15.5147 49.4013 13.1743C47.8874 10.8338 45.9206 8.81979 43.6166 7.25086M42.355 8.86742C42.3917 8.89186 42.427 8.9163 42.4609 8.94075L42.4375 8.92241C44.5238 10.343 46.305 12.1663 47.6765 14.2852C49.0479 16.4041 49.982 18.7757 50.4237 21.2608C50.9379 23.7013 50.9373 26.2222 50.4217 28.6624C49.9062 31.1026 48.8871 33.4084 47.4297 35.4324C46.3838 36.9503 45.1223 38.3078 43.685 39.4621C43.6478 39.4837 43.6124 39.5082 43.5791 39.5354C41.1159 41.4228 38.2148 42.6555 35.1463 43.1185C30.0938 43.9191 24.9276 42.7287 20.7349 39.7977C16.5422 36.8668 13.6497 32.4239 12.6661 27.4037C12.0451 24.3642 12.2068 21.2167 13.1361 18.2568C13.7213 16.4628 14.5736 14.7672 15.6643 13.2271C17.0635 11.1635 18.8778 9.41449 20.9913 8.09176C23.1047 6.76902 25.4708 5.90168 27.9385 5.54514C30.441 5.10614 33.0061 5.17415 35.4818 5.74513C37.9576 6.3161 40.2934 7.37842 42.3509 8.86909L42.355 8.86742Z" fill="#D24E00"/>
<path d="M17.4474 12.7539C16.6847 12.2011 15.8165 11.8109 14.8967 11.6076C13.9769 11.4043 13.0251 11.3922 12.1005 11.5721C11.1694 11.7204 10.2791 12.06 9.48563 12.5693C8.69218 13.0786 8.01278 13.7467 7.49018 14.5314C6.93604 15.2922 6.54449 16.1589 6.33992 17.0776C6.13535 17.9963 6.12214 18.9473 6.30112 19.8713L6.29635 19.8781C6.44523 20.8084 6.78371 21.698 7.29078 22.492C7.79785 23.2859 8.46269 23.9672 9.24403 24.4935C10.0092 25.0467 10.8793 25.4376 11.801 25.6424C12.7227 25.8472 13.6766 25.8615 14.604 25.6844C15.535 25.5328 16.4253 25.193 17.2206 24.6859C18.0159 24.1788 18.6996 23.5149 19.2298 22.7348C19.7783 21.9678 20.1656 21.0976 20.3683 20.1767C20.571 19.2558 20.5848 18.3033 20.409 17.3769L20.4022 17.3722C20.2513 16.4414 19.9112 15.5513 19.4031 14.7571C18.8949 13.9628 18.2293 13.281 17.4474 12.7539Z" fill="#FFA447"/>
<path d="M18.3332 17.6727L18.3284 17.6693C18.2227 16.9974 17.9797 16.3544 17.6146 15.7805C17.2495 15.2066 16.7701 14.714 16.2063 14.3335C15.6546 13.9341 15.0265 13.6525 14.3613 13.5064C13.696 13.3603 13.0077 13.3528 12.3394 13.4843C11.6686 13.5914 11.027 13.8357 10.4548 14.2019C9.88258 14.568 9.39199 15.0482 9.01368 15.6125C8.61417 16.1622 8.33202 16.7882 8.18478 17.4515C8.03753 18.1149 8.02833 18.8015 8.15775 19.4686L8.15106 19.4781C8.26068 20.1493 8.50664 20.7908 8.87376 21.3632C9.24089 21.9357 9.7214 22.4268 10.2857 22.8063C10.8366 23.2049 11.4632 23.4867 12.1271 23.6344C12.7909 23.7821 13.4778 23.7925 14.1458 23.6651C14.8185 23.5561 15.4619 23.3107 16.0363 22.9441C16.6108 22.5775 17.1043 22.0973 17.4865 21.5331C17.8819 20.9806 18.1609 20.3535 18.3065 19.6899C18.452 19.0263 18.4611 18.3399 18.3332 17.6727Z" fill="white"/>
<path d="M27.6501 18.5981L27.6276 18.5824C27.3839 17.0736 26.8334 15.6308 26.01 14.3432C25.1866 13.0556 24.1079 11.9506 22.8405 11.0964C21.6025 10.1976 20.1931 9.56281 18.6995 9.23137C17.206 8.89992 15.6603 8.87891 14.1584 9.16966C12.6466 9.41019 11.2009 9.96108 9.91244 10.7876C8.62396 11.6142 7.52054 12.6986 6.67164 13.9724C5.76873 15.2082 5.13065 16.6171 4.79732 18.1108C4.46399 19.6046 4.4426 21.151 4.73448 22.6534L4.72636 22.6651C4.96965 24.1754 5.52072 25.6197 6.34538 26.9083C7.17004 28.1968 8.25069 29.3022 9.52028 30.1558C10.7621 31.0532 12.174 31.6879 13.6695 32.0211C15.165 32.3543 16.7128 32.3789 18.2181 32.0935C19.7318 31.8469 21.1792 31.2943 22.4722 30.4696C23.7651 29.6449 24.8764 28.5653 25.7383 27.2968C26.6279 26.0511 27.256 24.6382 27.5845 23.1431C27.9131 21.6481 27.9355 20.102 27.6501 18.5981Z" fill="#D24E00"/>
<path d="M51.6228 36.5636L51.6084 36.5536C51.4088 35.3244 50.9594 34.1491 50.288 33.1003C49.6166 32.0515 48.7374 31.1514 47.7046 30.4556C46.6975 29.7257 45.5513 29.2105 44.337 28.9416C43.1227 28.6728 41.8661 28.6561 40.6451 28.8926C39.4149 29.0885 38.2385 29.5367 37.1899 30.2091C36.1413 30.8815 35.2431 31.7635 34.5518 32.7997C33.8186 33.8045 33.3009 34.9499 33.0311 36.1641C32.7613 37.3784 32.7453 38.6352 32.9841 39.856L32.974 39.8703C33.1706 41.0988 33.6174 42.2739 34.2869 43.3225C34.9565 44.3711 35.8343 45.271 36.8661 45.9662C37.8776 46.6975 39.0279 47.2145 40.2463 47.4853C41.4647 47.7562 42.7257 47.7753 43.9518 47.5413C45.1826 47.3414 46.3597 46.8925 47.4111 46.2221C48.4626 45.5517 49.3662 44.6739 50.0668 43.6423C50.7903 42.6284 51.3011 41.4786 51.5686 40.2621C51.836 39.0455 51.8544 37.7875 51.6228 36.5636Z" fill="#D24E00"/>
<path d="M25.506 18.9747L25.4923 18.9652C25.2931 17.7359 24.844 16.5606 24.1729 15.5116C23.5017 14.4627 22.6228 13.5624 21.5902 12.8663C20.5828 12.1362 19.4362 11.6208 18.2214 11.352C17.0067 11.0833 15.7497 11.0668 14.5283 11.3037C13.2981 11.4989 12.1216 11.9468 11.0731 12.6192C10.0246 13.2916 9.12678 14.174 8.43622 15.2106C7.70234 16.2153 7.1841 17.3608 6.91402 18.5752C6.64395 19.7896 6.62788 21.0468 6.86682 22.2678L6.85727 22.2814C7.05445 23.51 7.50185 24.6849 8.17174 25.7334C8.84164 26.7819 9.71975 27.6817 10.7516 28.3769C11.7628 29.1078 12.9124 29.6246 14.1302 29.8957C15.348 30.1669 16.6083 30.1866 17.834 29.9538C19.0653 29.7541 20.2429 29.3053 21.2947 28.6348C22.3466 27.9643 23.2506 27.0863 23.9514 26.0544C24.6745 25.0401 25.185 23.8901 25.4522 22.6734C25.7194 21.4568 25.7377 20.1986 25.506 18.9747Z" fill="#EF7717"/>
<path d="M40.6104 12.2613C40.6853 12.1513 40.737 12.0271 40.7624 11.8965C40.7878 11.7658 40.7862 11.6313 40.7579 11.5013C40.7322 11.371 40.6807 11.2472 40.6062 11.1373C40.5318 11.0274 40.436 10.9335 40.3245 10.8614C36.8712 8.50879 32.6342 7.60134 28.5203 8.33319H28.5153C26.4094 8.63923 24.3906 9.38146 22.588 10.5124C20.7854 11.6434 19.2387 13.1381 18.0468 14.9011C17.1197 16.2091 16.3931 17.6482 15.8911 19.1708L15.8861 19.1758C15.8 19.4308 15.7264 19.6888 15.6653 19.9499C15.601 20.21 15.6425 20.485 15.7805 20.7146C15.9186 20.9442 16.1421 21.1097 16.4019 21.1748C16.5316 21.2073 16.6665 21.2134 16.7986 21.1928C16.9308 21.1722 17.0574 21.1253 17.1711 21.0549C17.2862 20.9881 17.3864 20.8985 17.4656 20.7916C17.5449 20.6847 17.6014 20.5628 17.6319 20.4332C17.6807 20.2229 17.7407 20.0154 17.8118 19.8116V19.8024C18.2561 18.469 18.8955 17.2087 19.7092 16.0627C20.7504 14.525 22.1008 13.2213 23.6742 12.2347C25.2475 11.2482 27.0093 10.6005 28.847 10.3331C32.4569 9.69131 36.1747 10.4881 39.2046 12.5529C39.3154 12.6279 39.4402 12.6797 39.5715 12.705C39.7029 12.7304 39.838 12.7288 39.9687 12.7004C40.0996 12.6738 40.2238 12.6212 40.334 12.5457C40.4442 12.4703 40.5382 12.3736 40.6104 12.2613Z" fill="#FFA447"/>
<path d="M42.6182 9.95081C42.6009 9.81866 42.5568 9.69141 42.4888 9.5768C42.4208 9.4622 42.3301 9.36264 42.2223 9.28418C42.1824 9.25363 42.141 9.22447 42.0982 9.19669L42.1165 9.21086C40.112 7.75653 37.8351 6.72074 35.4217 6.16527C33.0083 5.6098 30.5077 5.54602 28.0691 5.97773C25.6519 6.3299 23.3345 7.18127 21.2643 8.47771C19.194 9.77414 17.4163 11.4873 16.044 13.5081C14.8321 15.2157 13.9238 17.1196 13.3592 19.136C12.6372 21.8276 12.5516 24.6502 13.1092 27.3805C14.0629 32.2744 16.8803 36.6064 20.967 39.4626C25.0537 42.3188 30.0901 43.4758 35.0136 42.6895C37.7535 42.2705 40.3609 41.2292 42.6357 39.6455C42.7109 39.5962 42.7817 39.5404 42.8473 39.4789C42.9425 39.3853 43.0177 39.2734 43.0684 39.15C43.1191 39.0265 43.1442 38.894 43.1423 38.7606C43.1419 38.5711 43.0885 38.3855 42.9881 38.2248C42.8877 38.0641 42.7443 37.9347 42.5742 37.8513C42.404 37.7679 42.2139 37.7337 42.0254 37.7528C41.8369 37.7718 41.6574 37.8432 41.5074 37.959C41.5012 37.9619 41.4962 37.9669 41.4932 37.9732C39.4612 39.3906 37.1305 40.322 34.6812 40.6955C30.2799 41.3938 25.7795 40.3573 22.1271 37.8041C18.4746 35.251 15.9552 31.3805 15.0991 27.0072C14.6031 24.581 14.6755 22.0729 15.3108 19.6793C15.8176 17.8862 16.6276 16.1929 17.7056 14.673C18.9234 12.875 20.5033 11.351 22.3439 10.1987C24.1846 9.04635 26.2455 8.29098 28.3949 7.98094C30.5756 7.59679 32.8114 7.65534 34.969 8.15308C37.1266 8.65083 39.1621 9.5776 40.9541 10.8782C40.9576 10.8785 40.961 10.8794 40.9642 10.881C40.9673 10.8826 40.9701 10.8847 40.9724 10.8874L41.0049 10.9107C41.11 10.9927 41.2308 11.0521 41.3598 11.0854C41.4888 11.1186 41.6233 11.125 41.7549 11.1041C41.887 11.0868 42.0143 11.0427 42.1289 10.9747C42.2435 10.9067 42.343 10.816 42.4215 10.7083C42.505 10.6025 42.5656 10.4806 42.5995 10.3502C42.6333 10.2198 42.6397 10.0838 42.6182 9.95081Z" fill="#EF7717"/>
<path d="M49.3538 36.9483L49.3443 36.9416C49.1933 36.0112 48.8532 35.1216 48.3451 34.3277C47.8369 33.5338 47.1715 32.8525 46.3899 32.3257C45.6272 31.7725 44.759 31.3818 43.8391 31.178C42.9193 30.9741 41.9673 30.9613 41.0423 31.1404C40.1106 31.2894 39.2197 31.6296 38.4258 32.1396C37.6319 32.6496 36.9521 33.3184 36.4292 34.1038C35.8753 34.864 35.484 35.7303 35.2799 36.6484C35.0757 37.5666 35.063 38.517 35.2425 39.4403L35.2358 39.4499C35.3856 40.3796 35.7247 41.2688 36.232 42.0622C36.7394 42.8556 37.4043 43.5364 38.1854 44.0625C38.9505 44.6158 39.8206 45.007 40.7422 45.2123C41.6638 45.4176 42.6177 45.4326 43.5453 45.2564C44.4756 45.1039 45.3651 44.7637 46.1598 44.2567C46.9545 43.7496 47.6378 43.0862 48.1681 42.3068C48.7181 41.5404 49.1068 40.6703 49.3107 39.7492C49.5145 38.8281 49.5292 37.8752 49.3538 36.9483Z" fill="#EF7717"/>
<path d="M23.2344 19.3602L23.2269 19.355C23.0771 18.424 22.7378 17.5337 22.2301 16.7392C21.7224 15.9446 21.0571 15.2627 20.2752 14.7355C19.5127 14.1835 18.6448 13.7941 17.7254 13.5915C16.8061 13.3888 15.8549 13.3772 14.9309 13.5575C13.9998 13.7053 13.1096 14.0446 12.3162 14.5539C11.5229 15.0631 10.8438 15.7313 10.3217 16.5163C9.7673 17.2766 9.37556 18.1431 9.17094 19.0617C8.96632 19.9802 8.95321 20.931 9.13243 21.8548L9.12957 21.8589C9.278 22.7889 9.616 23.6783 10.1226 24.4722C10.6292 25.266 11.2935 25.9472 12.0744 26.4736C12.8395 27.027 13.7098 27.4181 14.6318 27.6227C15.5537 27.8272 16.5077 27.841 17.4351 27.6631C18.3651 27.5121 19.2546 27.1729 20.049 26.6664C20.8434 26.1599 21.5262 25.4967 22.0556 24.7173C22.6037 23.9502 22.9907 23.0801 23.1933 22.1594C23.3959 21.2387 23.4099 20.2865 23.2344 19.3602Z" fill="#FFA447"/>
<path d="M21.1701 19.6531L21.1654 19.6498C21.0596 18.9779 20.8166 18.3349 20.4515 17.761C20.0864 17.1871 19.607 16.6945 19.0432 16.314C18.4915 15.9145 17.8634 15.633 17.1982 15.4869C16.5329 15.3407 15.8446 15.3332 15.1763 15.4648C14.5055 15.5719 13.8639 15.8162 13.2917 16.1823C12.7195 16.5485 12.2289 17.0287 11.8506 17.593C11.4511 18.1426 11.1689 18.7686 11.0217 19.432C10.8744 20.0954 10.8652 20.782 10.9947 21.449L10.988 21.4586C11.0976 22.1297 11.3435 22.7713 11.7107 23.3437C12.0778 23.9161 12.5583 24.4073 13.1226 24.7868C13.6735 25.1854 14.3002 25.4672 14.964 25.6148C15.6278 25.7625 16.3148 25.773 16.9827 25.6456C17.6554 25.5366 18.2988 25.2912 18.8732 24.9246C19.4477 24.5579 19.9412 24.0778 20.3234 23.5136C20.7188 22.9611 20.9978 22.334 21.1434 21.6704C21.289 21.0067 21.2981 20.3204 21.1701 19.6531Z" fill="white"/>
<path d="M47.2717 37.2235L47.2669 37.2201C47.1612 36.5482 46.9182 35.9052 46.5531 35.3313C46.188 34.7574 45.7086 34.2648 45.1448 33.8843C44.5931 33.4848 43.965 33.2033 43.2997 33.0572C42.6345 32.9111 41.9462 32.9035 41.2779 33.0351C40.6071 33.1422 39.9655 33.3865 39.3933 33.7526C38.8211 34.1188 38.3305 34.599 37.9522 35.1633C37.5526 35.713 37.2705 36.3389 37.1233 37.0023C36.976 37.6657 36.9668 38.3523 37.0962 39.0193L37.0895 39.0289C37.1992 39.7 37.4451 40.3416 37.8122 40.914C38.1794 41.4864 38.6599 41.9776 39.2241 42.3571C39.7751 42.7557 40.4017 43.0375 41.0655 43.1852C41.7293 43.3328 42.4163 43.3433 43.0843 43.2159C43.757 43.1069 44.4003 42.8615 44.9748 42.4949C45.5493 42.1283 46.0427 41.6481 46.4249 41.0839C46.8204 40.5314 47.0994 39.9043 47.2449 39.2407C47.3905 38.577 47.3996 37.8907 47.2717 37.2235Z" fill="white"/>
<path d="M45.8439 4.09373C45.0812 3.54091 44.213 3.15075 43.2932 2.94745C42.3734 2.74415 41.4216 2.73206 40.4969 2.91192C39.5658 3.06029 38.6756 3.39982 37.8821 3.90913C37.0887 4.41845 36.4093 5.08652 35.8867 5.87128C35.3325 6.63204 34.941 7.49877 34.7364 8.41746C34.5318 9.33615 34.5186 10.2871 34.6976 11.2111L34.6928 11.218C34.8417 12.1482 35.1802 13.0379 35.6873 13.8318C36.1943 14.6258 36.8592 15.307 37.6405 15.8333C38.4057 16.3865 39.2758 16.7775 40.1975 16.9823C41.1192 17.1871 42.073 17.2013 43.0005 17.0242C43.9314 16.8726 44.8218 16.5329 45.6171 16.0258C46.4124 15.5187 47.096 14.8548 47.6263 14.0747C48.1748 13.3077 48.5621 12.4374 48.7647 11.5165C48.9674 10.5956 48.9813 9.64319 48.8055 8.71678L48.7987 8.71201C48.6478 7.7812 48.3077 6.89119 47.7995 6.09689C47.2913 5.30259 46.6258 4.62085 45.8439 4.09373Z" fill="#D24E00"/>
<path d="M46.7336 9.00861L46.7288 9.00527C46.6231 8.33333 46.3801 7.69037 46.015 7.11646C45.6499 6.54255 45.1705 6.04999 44.6067 5.66948C44.055 5.27 43.4269 4.98843 42.7616 4.84232C42.0964 4.69621 41.4081 4.6887 40.7398 4.82026C40.069 4.92737 39.4274 5.17164 38.8552 5.5378C38.283 5.90397 37.7924 6.38417 37.4141 6.94843C37.0146 7.49811 36.7324 8.1241 36.5852 8.78747C36.4379 9.45084 36.4287 10.1374 36.5581 10.8045L36.5515 10.8141C36.6611 11.4852 36.907 12.1268 37.2742 12.6992C37.6413 13.2716 38.1218 13.7627 38.686 14.1423C39.237 14.5409 39.8636 14.8226 40.5274 14.9703C41.1912 15.118 41.8782 15.1285 42.5462 15.0011C43.2189 14.892 43.8622 14.6467 44.4367 14.28C45.0112 13.9134 45.5046 13.4333 45.8868 12.869C46.2823 12.3166 46.5613 11.6895 46.7069 11.0258C46.8524 10.3622 46.8615 9.67588 46.7336 9.00861Z" fill="white"/>
</g>
</g>
</g>
<defs>
<clipPath id="clip0_981_4339">
<rect width="250" height="50" fill="white"/>
</clipPath>
<clipPath id="clip1_981_4339">
<rect width="250" height="51.39" fill="white"/>
</clipPath>
<clipPath id="clip2_981_4339">
<rect width="249.984" height="51.39" fill="white" transform="translate(0.0078125)"/>
</clipPath>
</defs>
</svg>
