<svg width="30" height="30" viewBox="0 0 30 30" fill="none" xmlns="http://www.w3.org/2000/svg">
<path d="M15.0003 17.4998C15.6753 17.4998 16.2503 17.2498 16.7587 16.7582C17.2503 16.2498 17.5003 15.6748 17.5003 14.9998C17.5003 14.3248 17.2503 13.7498 16.7587 13.2415C16.2503 12.7498 15.6753 12.4998 15.0003 12.4998C14.3253 12.4998 13.7503 12.7498 13.242 13.2415C12.7503 13.7498 12.5003 14.3248 12.5003 14.9998C12.5003 15.6748 12.7503 16.2498 13.242 16.7582C13.7503 17.2498 14.3253 17.4998 15.0003 17.4998ZM15.0003 6.6665C17.292 6.6665 19.2503 7.49984 20.8753 9.12484C22.5003 10.7498 23.3337 12.7082 23.3337 14.9998V16.2082C23.3337 17.0415 23.042 17.7498 22.5003 18.3332C21.917 18.8915 21.2503 19.1665 20.417 19.1665C19.417 19.1665 18.592 18.7498 17.967 17.9165C17.1337 18.7498 16.1503 19.1665 15.0003 19.1665C13.8587 19.1665 12.8753 18.7498 12.0503 17.9498C11.2503 17.1248 10.8337 16.1498 10.8337 14.9998C10.8337 13.8582 11.2503 12.8748 12.0503 12.0498C12.8753 11.2498 13.8587 10.8332 15.0003 10.8332C16.1503 10.8332 17.1253 11.2498 17.9503 12.0498C18.7503 12.8748 19.167 13.8582 19.167 14.9998V16.2082C19.167 16.5498 19.3003 16.8498 19.5503 17.1082C19.8003 17.3665 20.092 17.4998 20.417 17.4998C20.767 17.4998 21.0587 17.3665 21.3087 17.1082C21.5587 16.8498 21.667 16.5498 21.667 16.2082V14.9998C21.667 13.1748 21.0253 11.6082 19.7087 10.2915C18.392 8.97484 16.8253 8.33317 15.0003 8.33317C13.1753 8.33317 11.6087 8.97484 10.292 10.2915C8.97533 11.6082 8.33366 13.1748 8.33366 14.9998C8.33366 16.8248 8.97533 18.3915 10.292 19.7082C11.6087 21.0248 13.1753 21.6665 15.0003 21.6665H19.167V23.3332H15.0003C12.7087 23.3332 10.7503 22.4998 9.12533 20.8748C7.50033 19.2498 6.66699 17.2915 6.66699 14.9998C6.66699 12.7082 7.50033 10.7498 9.12533 9.12484C10.7503 7.49984 12.7087 6.6665 15.0003 6.6665Z" fill="#EF7717"/>
<circle cx="15" cy="15" r="15" fill="#EF7717" fill-opacity="0.2"/>
</svg>
