<svg width="30" height="26" viewBox="0 0 30 26" fill="none" xmlns="http://www.w3.org/2000/svg">
<path fill-rule="evenodd" clip-rule="evenodd" d="M9.98311 3.71429V0C6.6385 0.836555 4.13852 2.72714 2.48311 5.67181C0.827694 8.61649 0 12.6152 0 17.668V26H11.25V14.8571H6.43581V13.7027C6.43581 10.9923 6.73142 8.80889 7.32263 7.15251C7.91385 5.49613 8.80067 4.35007 9.98311 3.71429ZM28.7332 3.71429V0C25.3886 0.836555 22.8886 2.72714 21.2332 5.67181C19.5778 8.61649 18.7501 12.6152 18.7501 17.668V26H30.0001V14.8571H25.1859V13.7027C25.1859 10.9923 25.4815 8.80889 26.0727 7.15251C26.6639 5.49613 27.5508 4.35007 28.7332 3.71429Z" fill="#F37318"/>
</svg>
