<svg version="1.2" xmlns="http://www.w3.org/2000/svg" viewBox="0 0 802 802" width="90" height="45">
	<title>wordpress-logo-svgrepo-com</title>
	<style>
		.s0 { fill: #030104 } 
	</style>
	<g>
		<path class="s0" d="m56.9 400c0 135.8 78.9 253.2 193.4 308.8l-163.7-448.4c-19.1 42.6-29.7 89.8-29.7 139.6zm574.7-17.4c0-42.4-15.2-71.7-28.3-94.6-17.3-28.3-33.7-52.2-33.7-80.4 0-31.6 24-60.9 57.7-60.9 1.5 0 2.9 0.2 4.4 0.2-61-55.9-142.4-90.1-231.7-90.1-119.9 0-225.3 61.5-286.7 154.7 8.1 0.3 15.7 0.4 22.1 0.4 35.9 0 91.4-4.3 91.4-4.3 18.5-1.1 20.7 26.1 2.2 28.2 0 0-18.6 2.2-39.2 3.3l124.9 371.7 75.1-225.2-53.4-146.5c-18.5-1.1-36-3.3-36-3.3-18.5-1.1-16.3-29.4 2.1-28.2 0 0 56.7 4.3 90.4 4.3 35.9 0 91.5-4.3 91.5-4.3 18.5-1.1 20.6 26.1 2.1 28.2 0 0-18.6 2.2-39.2 3.3l124 368.8 34.2-114.3c17.4-44.6 26.1-81.5 26.1-111zm-225.6 47.4l-102.9 299.1c30.7 9.1 63.2 14 96.9 14 39.9 0 78.3-6.9 114-19.4-0.9-1.5-1.8-3.1-2.5-4.7zm295.1-194.7c1.5 10.9 2.3 22.7 2.3 35.3 0 34.8-6.6 74-26.1 122.9l-104.8 303c102-59.5 170.6-170 170.6-296.6 0-59.6-15.2-115.7-42-164.6z"/>
		<g>
			<path class="s0" d="m0 400c0 220.5 179.4 400 400 400 220.6 0 400-179.5 400-400 0-220.6-179.4-400-400-400-220.6 0-400 179.4-400 400zm18.3 0c0-210.4 171.2-381.7 381.7-381.7 210.4 0 381.7 171.3 381.7 381.7 0 210.4-171.3 381.6-381.7 381.6-210.4 0-381.7-171.2-381.7-381.6z"/>
		</g>
	</g>
</svg>